<?xml version="1.0" standalone="no"?>
<!DOCTYPE svg PUBLIC "-//W3C//DTD SVG 20010904//EN"
 "http://www.w3.org/TR/2001/REC-SVG-20010904/DTD/svg10.dtd">
<svg version="1.0" xmlns="http://www.w3.org/2000/svg"
 width="511.000000pt" height="341.000000pt" viewBox="0 0 511.000000 341.000000"
 preserveAspectRatio="xMidYMid meet">
<metadata>
Created by potrace 1.11, written by Peter Selinger 2001-2013
</metadata>
<g transform="translate(0.000000,341.000000) scale(0.100000,-0.100000)"
fill="#000000" stroke="none">
<path d="M0 1705 l0 -1705 2555 0 2555 0 0 1705 0 1705 -2555 0 -2555 0 0
-1705z m2530 1285 l0 -130 -30 0 -30 0 0 130 0 130 30 0 30 0 0 -130z m120 0
l0 -130 -30 0 -30 0 0 130 0 130 30 0 30 0 0 -130z m610 -123 c-17 -29 -45
-78 -63 -109 -33 -61 -42 -66 -72 -45 -17 13 -15 20 45 125 l63 111 29 -15 28
-15 -30 -52z m-1318 -33 c32 -54 58 -104 58 -110 0 -6 -11 -16 -24 -22 -24
-11 -27 -7 -85 94 -34 59 -61 110 -61 114 0 12 32 30 45 26 6 -1 36 -47 67
-102z m885 -48 c1 -1 -11 -62 -27 -136 -15 -74 -56 -273 -90 -441 -57 -279
-64 -306 -81 -302 -11 3 -19 13 -19 22 0 9 39 208 87 443 83 407 88 428 108
422 11 -4 21 -7 22 -8z m973 -395 c0 -8 -220 -135 -224 -130 -9 10 -27 51 -24
53 2 2 50 31 108 64 105 61 105 61 123 40 9 -11 17 -23 17 -27z m-2336 -22
c101 -58 105 -61 94 -85 -6 -13 -15 -24 -21 -24 -12 0 -206 110 -213 121 -6
11 13 49 25 49 5 0 56 -27 115 -61z m1159 -523 c103 -43 128 -177 48 -257 -65
-65 -157 -65 -222 0 -124 123 13 325 174 257z m-1223 -86 l0 -30 -130 0 -130
0 0 30 0 30 130 0 130 0 0 -30z m2580 0 l0 -30 -130 0 -130 0 0 30 0 30 130 0
130 0 0 -30z m-2580 -120 l0 -30 -130 0 -130 0 0 30 0 30 130 0 130 0 0 -30z
m2580 0 l0 -30 -130 0 -130 0 0 30 0 30 130 0 130 0 0 -30z m-877 -547 c212
-247 386 -451 386 -455 1 -5 -2 -9 -6 -10 -10 -2 -782 896 -776 905 2 4 6 7 8
7 1 0 176 -201 388 -447z m-1549 29 l14 -27 -111 -64 c-103 -59 -111 -62 -124
-45 -7 10 -13 23 -13 29 0 8 201 133 217 135 1 0 9 -12 17 -28z m2141 -41 c54
-32 100 -62 102 -68 2 -5 -3 -18 -11 -28 -17 -22 -9 -26 -168 67 -64 37 -67
40 -56 63 6 14 16 25 22 25 6 -1 56 -27 111 -59z m-1719 -436 c-110 -191 -106
-186 -126 -175 -10 6 -22 14 -25 20 -3 5 22 58 57 118 l62 109 27 -16 28 -16
-23 -40z m1258 -47 c31 -53 56 -102 56 -107 0 -15 -41 -34 -50 -24 -14 13
-120 201 -120 211 0 12 43 32 52 23 3 -3 32 -50 62 -103z m-704 -188 l0 -130
-30 0 -30 0 0 130 0 130 30 0 30 0 0 -130z m120 0 l0 -130 -30 0 -30 0 0 130
0 130 30 0 30 0 0 -130z m2308 -80 c5 -120 5 -120 -156 -120 -117 0 -137 2
-148 18 -14 18 -20 163 -7 176 4 3 75 5 157 4 l151 -3 3 -75z"/>
<path d="M4660 325 l0 -65 140 0 140 0 0 65 0 65 -140 0 -140 0 0 -65z"/>
</g>
</svg>
