<?xml version="1.0" standalone="no"?>
<!DOCTYPE svg PUBLIC "-//W3C//DTD SVG 20010904//EN"
 "http://www.w3.org/TR/2001/REC-SVG-20010904/DTD/svg10.dtd">
<svg version="1.0" xmlns="http://www.w3.org/2000/svg"
 width="897.000000pt" height="596.000000pt" viewBox="0 0 897.000000 596.000000"
 preserveAspectRatio="xMidYMid meet">
<metadata>
Created by potrace 1.11, written by Peter Selinger 2001-2013
</metadata>
<g transform="translate(0.000000,596.000000) scale(0.100000,-0.100000)"
fill="#000000" stroke="none">
<path d="M6477 5742 c-21 -23 -66 -121 -84 -185 -24 -83 -28 -371 -9 -567 9
-91 19 -175 21 -187 5 -21 2 -23 -44 -23 -73 0 -246 -19 -330 -36 -144 -30
-354 -113 -442 -175 -21 -15 -37 -17 -78 -12 -42 5 -55 2 -72 -13 -25 -22 -59
-86 -59 -109 0 -9 -33 -54 -73 -99 -40 -45 -94 -112 -121 -149 l-47 -66 -77
53 c-42 30 -110 72 -151 94 -68 37 -75 44 -95 94 -47 115 -188 285 -321 385
-132 100 -293 154 -396 132 -53 -12 -119 -54 -145 -95 -23 -35 -22 -104 3
-145 l19 -34 -150 0 c-162 -1 -212 -11 -285 -61 -52 -35 -94 -102 -87 -139 11
-58 102 -107 239 -130 l38 -6 -63 -46 c-215 -157 -388 -367 -519 -629 l-55
-111 -44 71 c-150 245 -326 495 -445 631 -63 72 -64 75 -43 86 27 14 136 6
196 -15 l42 -15 -14 28 c-18 33 -86 96 -115 106 -39 12 -21 22 74 40 63 12
121 16 172 13 l78 -5 -43 38 c-75 66 -245 103 -345 76 l-29 -8 22 31 c51 71
229 162 365 185 69 11 70 11 45 27 -70 45 -247 54 -384 18 -98 -25 -208 -77
-264 -126 -58 -49 -67 -39 -65 77 l1 91 -33 -32 c-102 -99 -147 -320 -88 -433
l19 -39 -151 -151 c-84 -84 -189 -197 -234 -252 -115 -138 -331 -426 -426
-567 -43 -65 -82 -118 -86 -118 -4 0 -50 11 -101 25 -137 37 -144 36 -163 -27
-25 -86 -22 -95 35 -107 27 -6 72 -16 99 -22 l48 -10 -70 -122 c-123 -214
-207 -418 -207 -503 0 -84 55 -123 244 -174 l100 -27 -259 -86 c-267 -89 -299
-105 -310 -158 -4 -18 -18 -35 -35 -44 -39 -20 -80 -72 -80 -101 0 -40 27 -81
61 -93 26 -9 30 -14 25 -33 -4 -13 -10 -42 -13 -65 -5 -37 -2 -45 25 -73 l31
-31 -10 -112 c-5 -62 -22 -229 -38 -372 -42 -370 -46 -453 -28 -497 18 -43 68
-65 111 -49 20 8 26 7 26 -3 0 -25 48 -58 92 -63 63 -7 91 19 109 98 10 45 19
63 34 69 11 4 27 16 37 26 18 21 48 152 48 213 0 38 2 40 47 55 25 9 49 13 52
10 3 -3 16 -51 27 -107 12 -56 27 -114 33 -129 13 -35 53 -61 99 -63 20 -2 38
-8 40 -14 2 -6 17 -18 34 -27 42 -22 92 -10 137 31 20 18 51 46 69 62 24 20
35 39 39 68 l5 40 43 -3 c36 -3 48 1 79 28 22 19 42 30 52 26 19 -7 74 15 95
40 25 29 29 61 20 154 -5 47 -8 86 -7 87 1 2 33 -42 70 -98 70 -102 94 -126
135 -132 12 -2 26 -8 29 -14 12 -18 50 -33 82 -33 34 0 86 23 92 41 2 7 16 1
33 -16 81 -74 217 -107 353 -83 70 12 82 12 82 0 0 -21 56 -72 79 -72 13 0 33
-16 52 -43 37 -51 50 -59 96 -59 25 0 43 8 62 26 26 26 26 29 24 156 -1 77 2
130 8 130 5 0 30 -21 55 -46 42 -44 47 -46 86 -41 23 3 53 15 67 26 14 12 38
26 53 32 29 11 58 63 58 103 0 14 2 26 4 26 3 0 67 -42 143 -93 154 -103 218
-137 256 -137 24 0 25 -2 16 -35 -10 -36 10 -105 30 -105 6 0 17 -13 26 -30
31 -60 112 -78 163 -35 23 19 36 23 65 18 32 -5 41 -1 70 28 28 28 43 62 82
184 56 175 207 594 257 712 l34 81 21 -24 c16 -18 32 -24 62 -24 40 0 41 -1
41 -36 0 -20 9 -52 21 -70 30 -49 79 -59 149 -30 13 5 20 -33 44 -259 16 -146
27 -267 25 -269 -2 -2 -19 -11 -37 -20 -45 -23 -66 -73 -52 -125 5 -21 17 -44
25 -51 7 -6 19 -28 26 -48 14 -46 42 -77 82 -92 18 -7 46 -19 64 -26 17 -8 45
-14 62 -14 39 0 207 43 246 62 17 9 68 28 114 42 47 15 103 37 125 48 73 37
186 120 230 170 43 47 44 48 72 33 16 -8 32 -15 37 -15 4 0 20 -15 36 -32 23
-26 37 -33 68 -33 49 0 91 27 108 69 7 17 19 96 26 174 7 78 15 139 17 137 3
-3 8 -46 13 -97 13 -158 29 -227 58 -260 25 -28 31 -30 113 -31 100 -2 136 15
153 75 5 19 18 42 27 51 9 10 20 26 23 38 4 11 10 19 14 17 3 -2 58 -25 121
-51 63 -26 127 -55 142 -63 14 -7 40 -14 57 -14 23 0 34 -7 45 -28 8 -16 22
-34 31 -42 8 -7 22 -28 31 -46 36 -76 136 -82 295 -19 141 56 225 107 374 229
30 24 31 24 32 3 1 -11 11 -32 21 -46 10 -14 22 -39 26 -54 7 -28 57 -67 87
-67 9 0 38 -12 65 -27 76 -41 125 -37 237 20 108 55 169 105 221 180 88 128
81 277 -19 367 -130 117 -144 143 -104 187 13 14 49 38 79 53 69 35 89 57 92
100 2 19 11 42 21 50 28 24 37 72 20 111 -14 32 -17 75 -12 157 5 73 -50 114
-126 94 -32 -8 -52 -9 -75 -1 -52 19 -112 2 -204 -55 -95 -60 -189 -131 -234
-176 l-30 -29 -58 29 c-127 62 -379 81 -539 39 -116 -31 -125 -32 -125 -23 1
5 35 24 76 43 215 98 409 281 507 476 166 334 205 842 96 1262 -63 245 -170
461 -310 625 l-49 57 57 12 c32 6 96 17 143 23 l85 11 3 40 c5 58 -6 105 -25
105 -9 0 -96 -19 -194 -41 -169 -39 -180 -40 -202 -25 -200 147 -382 230 -596
270 -46 9 -86 16 -89 16 -12 0 8 222 27 294 29 111 107 266 182 365 35 45 69
90 74 98 26 39 -210 182 -391 237 -13 4 -26 0 -37 -12z m200 -123 c67 -33 126
-66 132 -73 8 -9 -3 -33 -44 -93 -30 -44 -64 -88 -75 -98 -19 -17 -21 -16 -82
40 l-62 57 -52 -6 c-29 -3 -55 -2 -58 2 -8 13 39 188 58 217 21 33 26 31 183
-46z m-598 -1358 l106 -27 23 -44 c29 -59 28 -114 -4 -178 -35 -71 -88 -102
-171 -102 -108 0 -195 46 -234 122 -43 84 -5 204 78 247 42 21 42 21 202 -18z
m-3642 -15 c97 -73 243 -253 414 -508 l81 -120 -71 -65 c-39 -35 -71 -69 -71
-75 0 -12 46 -58 135 -136 l60 -53 -169 82 -169 82 -31 -36 c-20 -22 -49 -41
-81 -51 -27 -9 -187 -67 -354 -128 l-303 -111 5 -33 c10 -62 29 -89 60 -86 26
3 27 1 27 -38 0 -78 49 -148 134 -192 57 -30 165 -30 221 -1 123 64 170 195
110 307 -18 33 -21 48 -12 51 6 2 61 17 121 35 l109 31 126 -17 c190 -25 187
-23 84 -49 -108 -28 -113 -30 -113 -55 0 -30 40 -130 52 -130 6 0 44 25 85 55
40 31 79 58 86 60 9 4 12 -34 13 -162 0 -122 5 -187 17 -236 21 -85 67 -197
112 -271 38 -64 41 -60 -60 -75 -235 -36 -330 -43 -630 -48 -632 -11 -1162 51
-1327 156 -59 37 -68 72 -44 169 34 137 211 482 248 482 16 0 17 -3 7 -22 -34
-63 -27 -147 16 -204 l24 -31 -74 -47 c-86 -55 -144 -114 -123 -127 7 -5 71
-9 142 -9 l129 0 71 -44 c39 -24 109 -63 155 -87 106 -56 139 -57 244 -7 88
42 222 132 231 154 9 22 -14 60 -89 147 -91 106 -174 167 -229 167 -22 0 -56
-4 -74 -9 -25 -8 -32 -7 -32 4 0 7 -3 20 -6 29 -5 12 0 16 20 16 21 0 27 7 38
41 10 36 10 43 -5 54 -15 11 -103 38 -320 100 l-57 17 86 126 c298 435 604
790 778 903 83 55 124 54 203 -5z m4888 21 c21 -12 53 -42 70 -65 25 -37 30
-53 30 -102 0 -51 -4 -63 -30 -90 -42 -44 -91 -56 -167 -42 -89 17 -128 61
-128 146 0 77 34 135 95 162 44 19 85 17 130 -9z m-200 -332 c200 -27 296 -65
387 -156 82 -82 70 -84 -137 -30 -294 77 -574 98 -745 54 -47 -12 -94 -25
-105 -29 -27 -9 44 65 110 116 93 72 95 72 245 65 74 -3 185 -13 245 -20z
m-97 -196 c94 -10 337 -55 353 -65 12 -7 -82 -192 -147 -291 -110 -166 -182
-198 -446 -198 -152 0 -169 2 -195 20 -32 24 -155 261 -175 338 -12 47 -12 49
12 67 34 27 154 84 218 105 109 35 217 42 380 24z m-2139 -579 c2 0 1 -34 -1
-77 -3 -61 -7 -78 -22 -87 -10 -6 -68 -44 -130 -84 -105 -69 -113 -73 -155
-68 -111 15 -187 62 -222 140 -33 73 -20 215 25 265 15 16 28 15 258 -36 134
-29 245 -53 247 -53z m499 32 c65 -116 20 -272 -92 -323 -63 -28 -90 -24 -153
23 -31 24 -88 59 -127 79 l-71 36 -3 76 c-2 43 -2 77 0 77 2 1 86 16 188 34
241 44 232 44 258 -2z m-3014 -103 c90 -71 70 -206 -40 -259 -116 -57 -255
-24 -315 74 -19 31 -25 91 -11 112 6 11 286 91 323 93 9 1 28 -8 43 -20z
m-865 -43 c140 -25 165 -38 159 -80 -5 -31 -28 -32 -28 -2 0 38 -40 55 -75 32
-27 -17 -31 -36 -15 -65 8 -16 -2 -23 -78 -55 l-86 -36 -33 32 c-34 33 -50 81
-38 117 5 17 52 81 58 81 1 0 62 -11 136 -24z m3486 -117 c165 -62 409 -287
431 -399 l7 -33 -209 6 c-399 13 -700 59 -720 111 -22 57 144 219 310 302 80
40 105 42 181 13z m-3070 -81 c41 -39 85 -84 97 -100 l21 -31 -45 27 c-29 17
-59 26 -86 26 -49 0 -369 -42 -531 -70 -62 -11 -128 -20 -145 -20 l-31 0 25
20 c73 58 360 186 492 219 92 24 107 18 203 -71z m53 -142 c27 -14 55 -32 62
-41 12 -15 11 -19 -10 -36 -51 -40 -195 -102 -246 -107 -46 -4 -60 1 -170 57
-65 34 -125 68 -132 75 -11 11 10 17 115 35 295 50 315 51 381 17z m2460 -89
c-7 -54 316 -421 418 -475 18 -9 30 -6 77 22 30 18 89 59 132 91 62 47 79 55
87 44 20 -30 67 -133 63 -139 -2 -4 -35 -17 -72 -30 -37 -12 -126 -49 -198
-82 -71 -33 -155 -66 -185 -74 -62 -15 -120 -18 -120 -6 0 14 -48 32 -85 32
-24 0 -42 -8 -63 -29 -26 -26 -31 -28 -44 -15 -26 26 -83 29 -123 5 -34 -20
-42 -20 -128 -11 -50 6 -125 18 -166 26 -65 13 -80 21 -104 50 -59 70 -122 93
-317 112 -62 7 -148 44 -166 73 -18 29 198 202 346 278 189 97 379 145 593
150 55 1 58 0 55 -22z m218 -102 c114 -17 448 -45 535 -45 33 0 59 -4 59 -10
0 -14 -197 -159 -286 -210 -56 -32 -80 -41 -99 -36 -35 9 -339 316 -312 316 2
0 48 -7 103 -15z m-1375 -309 c32 -30 72 -63 88 -72 l30 -18 -107 -36 c-59
-20 -120 -43 -137 -52 -63 -33 -72 -32 -85 7 -19 56 -87 83 -154 60 -22 -8
-57 -15 -76 -15 -65 -1 -175 -66 -319 -190 l-66 -57 0 108 c0 100 -2 109 -24
133 -14 14 -30 26 -36 26 -6 0 -26 11 -45 25 -54 40 -133 30 -160 -20 -7 -13
-23 -28 -37 -34 -13 -6 -31 -27 -39 -46 -8 -19 -25 -42 -39 -51 -29 -19 -37
-39 -44 -124 l-6 -65 -64 109 c-83 140 -136 196 -184 196 -51 0 -87 -34 -94
-88 -3 -23 -9 -42 -14 -42 -4 0 -10 -8 -14 -19 -3 -11 -19 -21 -37 -25 -17 -3
-39 -13 -49 -22 -15 -14 -17 -9 -24 71 -6 73 -4 89 10 105 25 28 30 92 11 131
-9 17 -16 33 -16 34 0 1 26 -2 58 -6 362 -48 1138 -40 1477 15 133 22 131 22
196 -38z m-1913 -22 c2 -15 -9 -32 -35 -54 -37 -31 -37 -32 -6 -16 17 9 35 20
38 26 9 14 73 40 100 40 21 0 35 -17 35 -40 0 -5 -10 -18 -22 -29 -20 -19 -21
-26 -15 -138 7 -120 43 -484 56 -557 6 -37 9 -41 39 -44 18 -2 36 -10 39 -18
3 -8 14 -14 24 -14 23 0 23 6 4 165 -17 141 -20 321 -5 330 6 4 27 -2 48 -12
l37 -18 10 50 c9 46 12 50 38 48 25 -2 27 1 20 20 -11 35 -9 80 5 84 6 3 12
-2 12 -11 0 -8 8 -21 19 -28 10 -7 50 -66 89 -130 85 -140 210 -328 219 -328
3 0 3 74 -1 165 -4 91 -4 181 0 201 6 31 10 35 31 31 26 -5 28 -2 38 56 6 36
8 38 36 32 27 -6 29 -4 29 22 0 37 13 56 36 51 16 -3 20 -15 24 -78 5 -74 12
-74 25 3 6 40 15 46 35 22 9 -11 9 -58 1 -207 -17 -295 -19 -348 -16 -348 2 0
13 29 25 64 12 36 39 92 61 126 21 33 39 68 39 78 0 29 213 208 302 253 27 14
51 19 70 15 18 -3 41 0 59 10 40 20 83 15 87 -11 2 -15 -6 -24 -30 -33 -25 -9
-30 -14 -20 -24 20 -20 14 -27 -60 -64 -77 -38 -190 -117 -223 -155 -11 -12
21 5 70 38 106 72 146 93 175 93 30 0 21 -20 -27 -55 -102 -77 -102 -76 -33
-45 58 27 120 39 120 24 0 -23 -32 -50 -99 -84 -164 -82 -268 -220 -279 -370
-9 -124 38 -200 122 -200 51 0 146 25 161 42 7 8 10 36 7 70 l-4 56 -68 -28
c-58 -24 -71 -26 -81 -14 -6 7 -9 21 -5 29 3 9 -1 18 -9 21 -30 12 -17 52 26
81 38 25 39 27 19 35 -15 5 -20 15 -18 30 5 34 90 72 253 113 185 47 175 43
175 71 0 24 -14 32 -25 14 -10 -16 -41 -12 -79 11 -35 20 -47 51 -26 64 6 4 8
11 4 16 -3 6 2 19 11 29 17 19 16 20 -14 37 -37 22 -40 46 -6 61 14 6 25 18
25 25 0 16 161 89 281 128 160 52 280 57 434 17 75 -19 145 -117 145 -204 0
-42 14 -61 34 -45 26 22 51 3 85 -66 18 -38 56 -106 83 -152 39 -64 53 -80 59
-68 5 8 20 62 34 120 35 148 38 155 77 159 29 3 33 7 48 55 19 65 33 81 55 63
9 -8 14 -22 12 -32 -4 -14 3 -22 28 -32 18 -8 38 -22 43 -33 10 -17 11 -17 18
2 22 64 55 125 67 125 17 0 27 -48 16 -76 -4 -12 -1 -26 9 -36 17 -20 13 -32
-60 -206 -49 -116 -205 -551 -248 -692 -34 -107 -69 -190 -81 -190 -22 0 -27
29 -14 75 18 59 19 66 1 59 -7 -3 -18 -22 -25 -42 -17 -58 -26 -68 -45 -53
-13 11 -17 10 -25 -10 -5 -13 -10 -33 -12 -44 -6 -30 -33 -25 -37 8 -2 18 -9
27 -21 27 -36 0 -39 18 -14 103 23 79 113 430 113 442 0 3 -7 5 -15 5 -8 0
-30 14 -50 31 l-36 32 18 -31 c26 -45 6 -53 -29 -12 -53 63 -127 180 -139 220
-7 22 -16 40 -21 40 -8 0 -210 -188 -216 -201 -1 -4 58 -48 133 -100 162 -112
175 -134 48 -78 -24 10 -43 16 -43 13 0 -2 38 -29 85 -60 94 -62 97 -65 86
-83 -6 -10 -20 -7 -59 13 -68 34 -74 33 -23 -5 47 -33 51 -60 11 -69 l-24 -6
32 -23 c32 -22 44 -61 19 -61 -21 0 -154 80 -278 166 -123 86 -215 141 -222
134 -3 -3 -1 -48 4 -100 8 -91 3 -120 -19 -106 -10 6 -38 122 -46 191 -2 22
-3 -22 -1 -97 3 -139 1 -148 -35 -148 -5 0 -16 35 -26 78 -31 141 -32 143 -33
71 -1 -71 -7 -85 -28 -68 -8 7 -13 34 -13 73 0 33 -7 124 -15 201 -8 77 -15
148 -15 157 0 12 -5 15 -16 11 -11 -4 -12 -9 -5 -16 19 -19 12 -28 -35 -49
l-46 -20 6 -262 c3 -143 9 -291 12 -328 5 -59 4 -68 -10 -68 -10 0 -19 11 -22
29 -4 20 -14 31 -29 35 -24 6 -25 12 -38 141 -4 41 -22 13 -27 -42 -3 -31 -10
-58 -17 -60 -11 -4 -33 53 -33 85 0 15 -5 15 -87 -4 -45 -10 -101 -15 -164
-12 -86 3 -101 6 -145 33 -27 17 -61 50 -77 73 -32 48 -52 53 -61 17 -4 -15
-14 -25 -24 -25 -9 0 -23 -9 -30 -20 -18 -30 -50 -26 -58 8 -9 42 -23 72 -33
72 -6 0 -19 10 -31 22 -23 25 -26 14 -5 -22 19 -34 18 -50 -3 -50 -12 0 -66
72 -167 223 l-150 222 -3 -45 c-1 -25 6 -132 16 -238 10 -106 15 -196 12 -201
-3 -5 -25 -9 -49 -8 -38 2 -46 6 -52 27 -4 14 -19 63 -33 110 -24 75 -26 79
-21 35 17 -143 22 -210 18 -222 -6 -14 -39 -18 -47 -5 -3 4 -16 82 -30 172
-14 90 -28 165 -30 167 -2 2 -23 -1 -47 -7 -41 -11 -42 -12 -18 -24 35 -17 35
-42 0 -61 -25 -12 -30 -20 -26 -43 24 -145 46 -316 41 -328 -9 -24 -35 -16
-56 19 l-21 32 7 -51 c5 -44 3 -55 -15 -73 -11 -11 -26 -21 -32 -21 -15 0 -33
50 -71 195 -36 143 -46 137 -29 -18 9 -82 9 -103 -2 -114 -7 -8 -21 -11 -30
-8 -16 7 -28 49 -63 228 -9 49 -22 91 -29 93 -17 7 -201 -54 -220 -72 -9 -9
-15 -34 -15 -62 -1 -71 -17 -171 -31 -189 -12 -13 -15 -13 -30 6 -21 25 -19
29 -45 -96 -14 -65 -21 -83 -35 -83 -26 0 -29 20 -24 143 l5 112 -28 -83 c-26
-82 -42 -97 -42 -41 0 43 -17 43 -25 0 -7 -40 -38 -80 -49 -63 -8 13 10 235
39 487 13 116 29 266 35 335 5 69 13 147 16 173 l6 48 -36 -6 c-45 -9 -48 9
-9 56 l27 32 -22 15 c-47 31 -13 73 121 147 37 20 67 39 67 41 0 2 -21 -6 -46
-16 -68 -30 -214 -80 -230 -80 -29 0 -12 20 46 55 50 30 59 40 55 58 -3 12 -2
28 3 34 4 7 118 49 252 94 135 44 252 85 260 90 25 15 55 6 58 -17z m4285 -90
c90 -20 132 -42 179 -91 54 -56 81 -123 86 -218 6 -117 -34 -210 -142 -332
-39 -43 -46 -57 -35 -64 8 -5 19 -9 25 -9 25 0 95 -63 115 -102 33 -65 37
-158 9 -233 -18 -47 -38 -75 -94 -130 -89 -87 -173 -137 -297 -176 -53 -16
-113 -38 -135 -49 -21 -11 -48 -20 -60 -20 -12 0 -41 -7 -64 -15 -52 -18 -100
-20 -100 -2 0 6 -13 12 -30 13 -32 1 -70 28 -70 50 0 7 14 16 32 19 17 4 45
13 62 21 30 14 29 14 -21 8 -43 -5 -54 -4 -59 10 -4 10 -18 16 -36 16 -26 0
-29 3 -26 27 3 24 11 30 53 44 31 10 49 21 48 30 -6 38 -53 459 -64 564 -17
168 -13 162 -84 115 -65 -44 -98 -48 -103 -14 -4 28 56 78 168 139 47 25 74
43 60 40 -14 -4 -63 -27 -109 -51 -47 -25 -94 -44 -105 -42 -32 5 -32 38 1 64
25 20 26 23 8 23 -11 0 -47 -11 -80 -24 -72 -30 -75 -30 -75 -6 0 11 17 33 38
50 33 25 38 35 34 61 -8 53 19 77 161 145 144 69 276 118 377 139 90 20 246
19 333 0z m491 -20 c12 -5 14 -19 10 -77 -3 -51 -2 -68 6 -57 5 8 10 26 10 40
0 35 14 53 36 48 17 -3 19 -12 16 -65 l-3 -61 78 38 c43 20 123 52 178 70 83
27 117 32 200 34 123 1 187 -14 264 -64 69 -44 111 -107 119 -176 3 -28 9 -43
16 -40 150 64 245 86 365 86 181 0 322 -39 381 -106 l29 -34 31 45 c86 125
410 329 410 259 0 -17 16 -17 103 5 28 7 37 6 37 -4 0 -19 -29 -39 -133 -89
-55 -26 -97 -50 -94 -52 3 -3 22 3 44 14 57 29 149 56 167 49 29 -11 17 -26
-46 -59 -57 -30 -60 -33 -35 -36 15 -2 27 -7 27 -11 0 -5 20 -6 45 -3 37 4 45
2 45 -12 0 -9 -16 -26 -35 -38 -35 -20 -35 -21 -20 -44 9 -14 13 -28 11 -33
-3 -5 -37 -27 -75 -50 -90 -53 -121 -90 -121 -144 0 -64 33 -120 105 -177 94
-73 118 -134 90 -227 -28 -93 -152 -204 -281 -252 -48 -19 -56 -19 -88 -6 -19
8 -36 22 -38 32 -2 12 -14 17 -48 17 -35 1 -45 5 -48 19 -2 10 5 25 15 32 17
14 17 14 -7 15 -29 0 -58 16 -48 26 4 3 37 17 73 29 109 39 166 95 180 177 8
47 -2 61 -69 95 -28 14 -70 38 -92 54 l-42 28 -17 -44 c-45 -120 -194 -297
-322 -383 -80 -54 -187 -108 -276 -138 -76 -26 -113 -30 -137 -14 -13 9 -11
14 12 33 l28 22 -23 15 c-12 7 -36 13 -53 11 -22 -2 -33 3 -38 15 -8 21 -3 26
54 47 25 10 50 21 57 25 9 5 1 74 -29 272 -22 146 -41 266 -43 268 -2 2 -19
-2 -38 -9 -46 -16 -67 -7 -67 30 0 21 -6 30 -22 35 -18 4 -28 -2 -47 -27 -13
-18 -62 -70 -108 -115 -45 -46 -83 -86 -83 -88 0 -10 144 -96 223 -134 60 -29
87 -47 91 -62 3 -12 1 -25 -5 -29 -6 -4 2 -16 20 -28 66 -47 16 -60 -71 -19
-61 28 -62 29 -40 6 32 -35 28 -39 -25 -23 -31 9 -41 9 -28 2 10 -7 33 -25 50
-42 l30 -30 -24 -3 c-13 -2 -26 0 -30 6 -3 5 -36 19 -72 31 -36 12 -122 51
-192 86 -70 36 -130 65 -134 65 -3 0 -3 -31 1 -69 7 -66 6 -70 -16 -77 -31 -9
-37 -21 -31 -60 5 -29 2 -34 -21 -40 -15 -3 -29 -4 -32 -1 -3 3 -10 38 -16 79
-18 136 -24 142 -32 31 -6 -76 -11 -103 -21 -103 -21 0 -34 92 -60 415 -22
271 -24 290 -38 276 -26 -26 -80 0 -62 30 4 5 -3 18 -13 29 -19 20 -19 20 -25
-82 -27 -440 -46 -636 -65 -654 -21 -22 -37 -12 -40 24 -2 23 -8 32 -21 32
-20 0 -30 32 -32 104 -1 34 -3 29 -13 -29 -6 -38 -15 -69 -21 -68 -12 3 -22
295 -24 712 l-1 293 25 -4 c21 -5 25 -1 31 28 4 24 12 34 24 34 10 0 31 7 46
15 34 17 29 16 48 9z m883 -676 c35 -10 37 -14 51 -109 l9 -57 -46 20 c-25 11
-70 33 -99 50 l-53 30 38 43 c23 26 44 41 53 38 8 -3 30 -9 47 -15z"/>
<path d="M6043 4188 c-31 -34 -36 -63 -18 -98 15 -29 49 -50 80 -50 7 0 27 12
44 26 24 20 31 34 31 60 0 73 -90 113 -137 62z"/>
<path d="M4433 3146 c-22 -19 -28 -33 -28 -64 0 -68 58 -112 121 -92 67 22 85
100 35 151 -38 37 -88 39 -128 5z"/>
<path d="M4980 3130 c-52 -52 -26 -123 47 -128 34 -3 44 1 63 25 56 72 -45
168 -110 103z"/>
<path d="M3505 1749 c-22 -5 -60 -14 -85 -21 l-45 -14 -3 -112 c-1 -62 0 -112
3 -112 14 0 133 87 173 127 40 41 79 109 68 120 -12 12 -75 18 -111 12z"/>
<path d="M1112 1512 c-44 -243 -48 -272 -32 -272 33 0 150 45 150 58 0 24 -73
377 -79 384 -4 5 -21 -72 -39 -170z"/>
<path d="M5323 1720 c-13 -5 -20 -15 -18 -22 3 -7 9 -77 14 -156 4 -78 11
-145 14 -149 21 -20 201 155 212 206 8 37 -10 77 -48 105 -31 23 -136 33 -174
16z"/>
<path d="M5381 1135 l-54 -25 6 -81 c3 -44 8 -83 11 -86 8 -9 81 14 144 45 58
28 112 82 112 111 0 59 -126 80 -219 36z"/>
<path d="M6583 1763 c-11 -8 -37 -262 -28 -271 19 -19 136 87 165 150 27 58
25 84 -6 104 -28 19 -112 29 -131 17z"/>
<path d="M7397 1525 c-21 -7 -41 -16 -45 -19 -8 -9 38 -429 48 -440 16 -16
154 133 189 203 55 108 52 205 -7 251 -30 24 -126 27 -185 5z m141 -77 c18
-18 14 -67 -8 -116 -23 -52 -60 -105 -67 -98 -7 7 -30 215 -24 221 9 10 88 4
99 -7z"/>
</g>
</svg>
