<?xml version="1.0" standalone="no"?>
<!DOCTYPE svg PUBLIC "-//W3C//DTD SVG 20010904//EN"
 "http://www.w3.org/TR/2001/REC-SVG-20010904/DTD/svg10.dtd">
<svg version="1.0" xmlns="http://www.w3.org/2000/svg"
 width="980.000000pt" height="980.000000pt" viewBox="0 0 980.000000 980.000000"
 preserveAspectRatio="xMidYMid meet">
<metadata>
Created by potrace 1.11, written by Peter Selinger 2001-2013
</metadata>
<g transform="translate(0.000000,980.000000) scale(0.100000,-0.100000)"
fill="#000000" stroke="none">
<path d="M2298 9214 c-86 -20 -181 -88 -234 -166 -16 -24 -31 -45 -34 -48 -30
-30 -77 -177 -85 -265 -3 -38 -10 -117 -16 -175 -5 -58 -16 -204 -24 -325 -8
-121 -19 -287 -25 -370 -5 -82 -12 -172 -15 -200 -2 -27 -9 -113 -15 -190 -6
-77 -15 -198 -21 -270 -5 -71 -14 -197 -19 -280 -6 -82 -14 -195 -20 -250 -5
-55 -14 -181 -20 -280 -6 -99 -13 -196 -15 -215 -3 -19 -12 -132 -20 -250 -32
-468 -45 -647 -50 -690 -5 -42 -14 -170 -50 -690 -7 -113 -16 -232 -20 -265
-3 -33 -12 -161 -21 -285 -8 -124 -22 -319 -30 -435 -27 -392 -29 -465 -9
-546 37 -155 121 -294 233 -385 78 -64 86 -67 467 -204 110 -39 216 -78 235
-85 35 -14 354 -128 665 -240 88 -31 183 -65 210 -76 88 -33 736 -266 1060
-381 77 -27 156 -56 175 -63 19 -7 89 -32 155 -55 66 -23 199 -70 295 -105
189 -68 357 -127 515 -182 55 -19 109 -38 120 -43 11 -4 74 -27 140 -50 254
-89 321 -112 355 -125 19 -7 80 -29 135 -48 55 -19 186 -65 290 -103 292 -104
299 -105 405 -106 75 -1 108 4 160 22 187 67 306 216 335 420 3 25 13 81 20
125 8 44 33 193 55 330 22 138 44 275 50 305 5 30 21 132 35 225 15 94 32 199
40 235 7 36 16 89 20 118 9 70 25 56 25 -22 0 -52 4 -66 23 -84 13 -12 31 -22
40 -22 10 0 40 -11 67 -25 27 -14 63 -25 81 -25 17 0 60 -14 96 -31 36 -17 82
-34 103 -36 34 -5 40 -2 66 33 23 29 29 49 30 88 0 28 4 59 9 69 8 19 4 118
-14 370 -27 371 -33 455 -46 647 -7 113 -18 275 -24 360 -7 85 -16 218 -22
295 -5 77 -16 237 -24 355 -8 118 -19 268 -25 333 -5 66 -8 122 -6 126 4 6 29
159 61 376 8 50 23 151 35 225 23 145 40 253 70 450 11 69 26 168 34 220 8 52
24 156 36 230 11 74 27 176 35 225 7 50 23 153 35 230 23 147 38 247 71 460
31 201 34 268 14 365 -46 229 -177 407 -370 503 -81 40 -112 47 -505 112 -47
8 -233 39 -415 70 -181 31 -368 62 -415 70 -69 11 -263 44 -465 78 -227 38
-293 50 -370 62 -49 8 -144 24 -210 35 -66 11 -160 27 -210 35 -49 8 -144 24
-210 35 -175 30 -277 46 -395 64 -58 9 -112 19 -120 21 -8 3 -62 12 -120 21
-184 28 -448 71 -520 84 -30 6 -127 21 -215 35 -149 24 -251 41 -400 67 -33 5
-100 16 -150 24 -49 7 -133 20 -185 29 -52 9 -149 24 -215 35 -66 11 -160 26
-210 34 -369 62 -400 64 -497 40z m2118 -2669 c-8 -21 11 -19 23 3 6 9 11 12
11 5 0 -6 -4 -15 -10 -18 -5 -3 -10 -15 -10 -26 0 -10 -4 -19 -9 -19 -8 0 -24
-37 -22 -52 0 -3 -6 -9 -14 -12 -9 -3 -15 0 -15 8 0 8 5 16 11 18 5 2 7 11 4
21 -9 21 -25 13 -25 -13 0 -10 -6 -21 -12 -24 -9 -3 -7 -10 8 -23 24 -22 56
-83 43 -83 -5 0 -9 5 -9 10 0 6 -5 10 -11 10 -6 0 -9 -6 -6 -13 10 -26 -27
-37 -79 -23 -37 9 -49 17 -49 32 0 10 -6 24 -14 30 -17 13 -6 35 14 28 8 -4
12 -10 9 -15 -3 -5 0 -9 6 -9 8 0 9 6 4 18 -4 9 -7 27 -7 39 1 12 -5 24 -13
27 -8 3 -14 13 -14 23 1 17 1 17 14 0 13 -17 66 -21 66 -4 0 5 6 4 14 -2 10
-9 15 -8 20 4 3 8 12 15 20 15 9 0 12 7 9 20 -4 15 0 20 16 20 11 0 21 5 21
10 0 6 3 10 6 10 3 0 4 -7 0 -15z m2324 -529 c0 -8 -6 -16 -14 -19 -7 -3 -15
-21 -18 -41 -2 -19 -1 -33 3 -30 4 2 12 -3 17 -13 9 -14 13 -15 26 -4 11 9 16
10 16 2 0 -6 -4 -11 -10 -11 -5 0 -12 -16 -16 -35 -7 -41 -22 -47 -20 -8 1 14
-5 28 -12 31 -9 2 -12 -3 -10 -14 2 -12 -3 -19 -12 -19 -8 0 -18 -4 -22 -10
-4 -5 -15 -1 -27 9 -19 17 -31 10 -14 -7 9 -9 11 -57 2 -57 -4 0 -12 7 -19 15
-7 8 -16 13 -20 10 -17 -10 -40 8 -40 31 0 19 5 24 28 24 19 0 23 3 13 9 -9 6
-11 16 -6 27 5 13 9 15 12 7 3 -7 12 -13 21 -12 10 0 12 3 5 5 -7 3 -9 13 -6
21 10 24 42 55 53 48 5 -3 10 5 12 17 2 13 9 22 16 21 6 -2 12 2 12 7 0 6 7
10 15 10 8 0 15 -6 15 -14z m-3256 -171 c9 -13 16 -32 17 -42 0 -14 2 -13 9 5
11 27 21 28 37 3 7 -11 22 -21 34 -23 12 -2 24 -9 27 -15 2 -9 -5 -11 -27 -7
-24 5 -31 3 -31 -10 0 -9 5 -16 10 -16 6 0 10 5 10 12 0 6 6 4 13 -7 8 -10 19
-15 25 -11 7 4 12 2 12 -3 0 -13 -4 -13 -52 -2 -21 5 -38 7 -38 5 0 -11 47
-50 58 -47 15 6 15 -2 0 -26 -11 -18 -19 -18 -80 -2 -5 1 -22 4 -38 8 -38 7
-45 17 -25 36 19 20 19 31 0 23 -10 -4 -15 1 -15 16 0 17 2 19 16 7 13 -10 17
-10 25 2 5 8 9 9 9 3 0 -17 28 -25 36 -11 4 7 4 9 -1 5 -11 -10 -37 11 -29 24
3 5 0 15 -6 23 -7 8 -10 22 -6 30 3 9 -1 18 -9 21 -8 4 -15 10 -15 15 0 17 18
9 34 -16z m923 -119 c-2 -6 -8 -11 -13 -12 -5 0 -22 -6 -38 -13 -22 -9 -26
-15 -18 -23 9 -9 15 -9 24 0 16 16 51 16 46 0 -3 -7 -9 -13 -14 -13 -5 0 -15
-4 -21 -8 -7 -5 -17 -6 -22 -2 -6 3 -14 -3 -20 -12 -5 -10 -13 -15 -17 -11 -8
9 -34 -9 -34 -23 0 -5 7 -9 15 -9 8 0 15 5 15 10 0 6 7 10 15 10 8 0 15 -4 15
-8 0 -14 -24 -32 -42 -32 -11 0 -28 -9 -40 -20 -19 -17 -19 -20 -5 -20 9 0 17
5 17 10 0 6 9 10 19 10 11 0 22 4 26 9 3 5 19 12 35 16 19 4 30 13 29 23 0 11
-2 12 -6 5 -7 -18 -23 -16 -23 1 0 13 37 33 45 24 7 -8 -11 -81 -20 -80 -20 2
-55 -10 -55 -20 0 -5 -10 -8 -22 -6 -11 2 -23 -3 -26 -11 -4 -11 3 -12 34 -6
22 4 41 10 44 14 8 13 40 8 40 -6 0 -7 -9 -13 -20 -13 -11 0 -20 -5 -20 -11 0
-5 -4 -8 -10 -4 -5 3 -18 0 -29 -7 -16 -10 -23 -10 -33 0 -6 6 -17 12 -22 12
-6 0 -3 -7 8 -15 10 -7 15 -19 11 -25 -6 -9 -9 -9 -15 0 -4 7 -20 13 -36 15
-48 5 -68 15 -80 40 -10 20 -8 27 7 41 15 14 22 15 31 6 7 -7 17 -12 23 -12 5
0 3 4 -5 10 -12 8 -12 10 3 16 11 4 16 13 12 24 -3 10 -1 21 5 25 6 4 8 16 5
26 -4 11 -1 27 6 35 10 13 10 17 0 24 -14 8 -7 30 8 30 12 0 21 -39 11 -45 -4
-2 -7 -22 -7 -43 0 -38 1 -39 19 -23 16 14 17 17 3 27 -28 20 -13 38 40 49 26
5 65 25 65 34 0 5 9 7 20 4 12 -3 19 -11 17 -17z m591 -154 c4 -24 26 -30 39
-9 5 9 18 11 38 6 l30 -7 -32 -1 c-21 -1 -37 -8 -45 -21 -7 -11 -17 -20 -23
-20 -6 0 -16 -9 -23 -20 -15 -25 -8 -25 26 -2 35 24 63 36 83 33 9 -1 19 5 22
14 4 8 13 15 22 15 11 0 15 -11 15 -45 0 -43 -11 -58 -26 -34 -4 8 -9 7 -15
-2 -7 -12 -9 -12 -9 -1 0 8 9 16 20 19 22 6 28 33 8 33 -7 0 -26 -7 -42 -15
-15 -8 -32 -13 -36 -10 -5 3 -17 -6 -28 -20 -11 -14 -24 -25 -30 -25 -11 0
-25 -30 -17 -38 3 -3 5 0 5 7 0 14 88 56 98 46 7 -7 -19 -26 -28 -20 -4 2 -19
-9 -35 -24 l-27 -29 48 15 c27 9 57 20 66 24 28 14 38 11 38 -11 0 -11 -4 -20
-10 -20 -5 0 -10 4 -10 9 0 12 -41 2 -61 -15 -9 -8 -18 -11 -22 -8 -3 3 -11 3
-17 -1 -20 -12 10 -25 42 -18 19 4 28 1 28 -7 0 -8 -3 -10 -7 -7 -3 4 -12 2
-20 -4 -10 -9 -10 -15 -2 -25 16 -19 30 -17 22 3 -5 13 -2 15 15 11 23 -6 32
15 11 28 -8 4 -7 9 2 15 24 15 29 10 26 -28 -2 -28 -7 -38 -19 -38 -9 0 -20
-4 -24 -8 -4 -4 -15 -7 -25 -7 -9 0 -19 -6 -22 -12 -4 -10 -7 -10 -18 0 -14
13 -49 17 -49 4 0 -4 6 -14 13 -21 10 -10 7 -10 -15 0 -22 9 -31 9 -43 -1 -12
-10 -16 -9 -21 4 -3 9 -12 16 -20 16 -18 0 -18 14 1 30 8 7 15 18 15 24 0 6
-7 2 -15 -8 -10 -14 -18 -17 -25 -10 -7 7 -4 16 10 29 19 18 21 18 41 -1 21
-19 22 -19 15 4 -5 13 -3 22 3 22 6 0 11 10 11 23 0 41 5 72 13 85 5 7 5 22 1
35 -6 19 -5 20 10 8 27 -22 30 -5 6 29 -21 30 -21 32 -4 28 11 -2 20 -13 22
-26z m1570 -435 c6 -12 11 -16 11 -9 1 14 31 17 31 2 0 -5 -10 -20 -22 -32
-13 -13 -17 -23 -10 -26 6 -2 8 -10 5 -18 -3 -8 0 -14 6 -14 6 0 11 11 11 25
0 14 4 25 9 25 18 0 20 -17 6 -36 -8 -10 -15 -27 -15 -36 0 -10 -7 -18 -15
-18 -9 0 -12 -6 -8 -16 4 -10 -1 -17 -16 -21 -26 -7 -27 -21 -2 -25 17 -3 18
-5 6 -21 -12 -16 -14 -16 -28 -2 -9 9 -14 21 -11 28 2 7 -5 18 -16 25 -12 7
-20 8 -20 2 0 -5 4 -10 8 -10 5 0 9 -13 9 -30 0 -33 -8 -38 -27 -16 -6 8 -18
12 -26 9 -8 -3 -14 0 -14 7 0 6 -4 9 -9 6 -4 -3 -8 8 -7 23 1 16 3 29 6 29 20
-1 29 4 24 16 -6 17 12 31 21 16 11 -18 20 -11 22 17 0 14 8 30 17 35 9 5 16
14 16 19 0 6 -5 7 -12 3 -8 -5 -9 0 -5 16 3 13 2 29 -3 35 -7 9 -2 12 19 13
20 0 32 -6 39 -21z m-3138 3 c0 -5 -4 -10 -10 -10 -13 0 -13 -20 0 -40 8 -12
11 -13 22 -2 11 11 10 13 -1 10 -20 -5 -26 21 -6 28 10 4 21 1 26 -7 7 -11 9
-11 9 4 0 21 0 21 37 2 17 -8 45 -16 64 -18 24 -2 35 -8 37 -21 3 -14 0 -17
-12 -13 -10 4 -16 1 -16 -8 0 -9 6 -12 17 -8 13 5 15 2 10 -18 -4 -13 -10 -55
-13 -94 -3 -38 -10 -86 -14 -105 l-8 -35 -1 33 c-1 29 -10 37 -35 33 -4 -1
-14 3 -22 10 -7 6 -19 7 -26 3 -7 -5 -24 -8 -38 -9 -14 0 -25 -4 -26 -10 0 -5
7 -9 18 -7 10 2 18 -2 18 -8 0 -7 8 -9 20 -5 11 4 20 2 20 -4 0 -18 28 -12 33
7 4 15 5 15 6 0 2 -26 -13 -29 -66 -17 -26 6 -57 12 -67 13 -28 2 -43 30 -27
50 8 9 20 15 27 14 7 -2 14 1 16 6 2 5 -5 10 -14 12 -10 1 -18 -2 -18 -7 0 -5
-7 -9 -15 -9 -21 0 -19 12 5 33 23 19 50 23 50 6 0 -5 5 -7 10 -4 18 11 11 22
-19 28 -24 5 -28 11 -27 36 1 18 6 31 14 31 6 0 12 7 12 16 0 8 -4 12 -10 9
-5 -3 -10 0 -10 9 0 8 -5 16 -10 18 -14 4 11 58 28 58 6 0 12 -4 12 -10z m853
-226 c27 -4 37 -11 37 -25 0 -11 -3 -19 -7 -19 -5 0 -6 -25 -5 -55 l4 -55 -39
-17 c-21 -9 -46 -17 -55 -17 -10 -1 -17 -5 -15 -11 1 -5 9 -9 17 -7 8 2 23 3
33 3 10 0 21 7 24 15 11 30 22 1 17 -49 -8 -78 -11 -83 -33 -56 -15 19 -21 21
-33 11 -12 -10 -20 -7 -44 15 -24 22 -30 24 -32 11 -3 -15 -7 -15 -48 0 -47
17 -59 47 -29 72 8 7 12 16 9 21 -3 5 2 9 10 9 19 0 21 11 4 28 -14 14 -11 17
19 26 21 7 22 5 17 -23 -7 -32 11 -45 22 -16 4 8 10 12 16 9 5 -3 2 -14 -7
-24 -13 -14 -13 -19 -3 -23 11 -4 11 -8 0 -27 -11 -18 -11 -24 -1 -31 20 -12
31 0 25 26 -3 13 -1 27 5 30 6 4 8 14 5 22 -3 8 -3 20 1 26 4 7 6 26 4 44 -2
24 2 33 12 33 22 0 37 23 27 40 -8 13 -10 12 -10 -2 0 -10 -4 -18 -10 -18 -5
0 -10 12 -10 26 0 19 4 24 18 20 9 -3 34 -8 55 -12z m-803 -604 c19 0 21 -3
12 -12 -19 -19 -14 -33 6 -15 27 25 32 13 26 -62 -7 -76 -9 -81 -34 -81 -24 0
-36 -20 -19 -31 9 -6 18 -3 26 7 11 16 11 15 4 -90 -1 -18 -2 -18 -18 -3 -12
10 -28 13 -45 10 -18 -3 -28 -1 -28 7 0 7 6 10 14 7 8 -3 20 1 26 9 7 8 19 14
27 14 8 0 12 4 8 9 -3 5 -21 7 -40 4 -23 -4 -35 -2 -35 6 0 6 6 11 14 11 21 0
31 21 15 31 -11 7 -10 9 4 9 9 0 17 5 17 10 0 6 8 10 17 8 10 -2 19 4 21 15 2
10 -3 17 -12 17 -9 0 -16 -5 -16 -11 0 -6 -7 -9 -15 -6 -8 4 -17 2 -20 -4 -4
-5 -14 -8 -23 -7 -11 2 -17 -4 -17 -17 0 -11 6 -19 13 -17 21 4 13 -15 -9 -21
-20 -5 -20 -7 -5 -22 22 -22 20 -28 -4 -15 -16 9 -20 8 -20 -5 0 -8 -7 -15
-15 -15 -8 0 -15 5 -15 10 0 6 -7 10 -15 10 -8 0 -20 10 -26 22 -10 18 -8 24
7 35 10 7 14 13 8 13 -5 0 0 7 10 15 14 11 16 18 8 27 -8 10 -5 16 13 24 23
11 24 10 18 -17 -5 -28 9 -40 22 -19 4 6 14 9 23 8 9 -2 18 5 20 16 3 16 0 18
-23 12 -22 -6 -24 -5 -14 7 16 17 49 10 49 -9 0 -8 7 -14 15 -14 8 0 15 6 15
14 0 7 10 21 23 29 18 13 19 16 5 16 -10 1 -18 -3 -18 -8 0 -4 -10 -8 -22 -7
-20 1 -23 6 -21 39 2 31 -1 37 -17 37 -11 0 -20 6 -20 14 0 13 4 13 28 0 15
-7 38 -14 52 -14z m2939 -50 c12 0 21 -4 21 -10 0 -5 11 -10 25 -10 16 0 25
-6 25 -15 0 -8 -6 -15 -14 -15 -20 0 -27 -38 -10 -54 8 -8 14 -21 14 -29 0 -8
7 -18 16 -21 13 -5 14 -9 4 -21 -16 -19 -31 -19 -24 0 4 9 0 15 -10 15 -9 0
-13 -6 -10 -15 8 -20 -38 -30 -66 -15 -18 10 -21 9 -15 -1 9 -13 15 -69 8 -69
-2 0 -14 9 -25 20 -13 12 -24 16 -28 10 -4 -6 -12 0 -19 14 -14 26 -8 46 14
46 8 0 11 7 8 20 -6 22 7 26 25 8 6 -6 15 -8 19 -3 5 4 3 10 -4 12 -7 2 -9 11
-6 19 6 18 -28 19 -45 2 -7 -7 -12 -8 -12 -2 0 6 11 21 25 34 21 19 25 21 25
7 0 -10 8 -17 20 -17 12 0 20 7 20 16 0 10 6 14 15 10 10 -4 15 1 15 14 0 11
-5 20 -11 20 -5 0 -7 -4 -4 -10 3 -5 -1 -10 -10 -10 -9 0 -14 4 -11 9 3 5 -4
21 -16 36 l-21 28 21 -12 c11 -6 30 -11 41 -11z m-1626 -418 c6 -9 13 -9 28
-2 15 9 19 7 19 -7 0 -12 3 -14 11 -6 11 11 52 6 44 -7 -2 -3 10 -6 26 -5 29
2 31 0 25 -28 -3 -16 -6 -46 -7 -66 l-1 -36 -9 35 c-4 19 -6 42 -3 51 3 11 -3
18 -17 22 -17 5 -20 2 -16 -14 3 -10 1 -17 -4 -13 -5 3 -9 -1 -9 -10 0 -8 6
-16 12 -18 10 -4 10 -10 0 -29 -17 -34 -34 -59 -54 -81 -15 -14 -18 -15 -18
-3 0 8 4 15 9 15 12 0 51 67 51 86 0 23 -25 11 -28 -14 -2 -12 -10 -22 -18
-22 -8 0 -13 -5 -11 -11 1 -6 -4 -14 -10 -16 -7 -3 -13 1 -13 9 0 10 -3 9 -10
-2 -9 -13 -12 -12 -25 4 -13 18 -14 16 -10 -17 5 -36 5 -36 -23 -25 -54 21
-72 32 -72 41 0 5 7 4 15 -3 12 -10 15 -10 15 2 0 8 -3 18 -7 22 -10 9 -11 66
-2 66 4 0 9 -13 13 -30 3 -16 10 -30 16 -30 14 0 13 27 -2 32 -7 3 -9 12 -5
22 4 9 11 14 17 11 14 -9 13 38 -1 52 -7 7 -9 19 -5 28 5 15 8 14 24 -6 17
-20 19 -20 25 -5 4 10 1 19 -8 22 -8 4 -12 10 -9 16 6 9 33 -7 47 -30z"/>
</g>
</svg>
