<?xml version="1.0" standalone="no"?>
<!DOCTYPE svg PUBLIC "-//W3C//DTD SVG 20010904//EN"
 "http://www.w3.org/TR/2001/REC-SVG-20010904/DTD/svg10.dtd">
<svg version="1.0" xmlns="http://www.w3.org/2000/svg"
 width="100.000000pt" height="100.000000pt" viewBox="0 0 100.000000 100.000000"
 preserveAspectRatio="xMidYMid meet">
<metadata>
Created by potrace 1.11, written by Peter Selinger 2001-2013
</metadata>
<g transform="translate(0.000000,100.000000) scale(0.100000,-0.100000)"
fill="#000000" stroke="none">
<path d="M788 792 c-10 -2 -18 -7 -18 -12 0 -4 10 -6 23 -2 20 5 21 4 8 -11
-12 -15 -12 -17 5 -12 13 4 12 2 -3 -6 -30 -16 -29 -29 1 -29 14 0 28 -5 31
-10 4 -6 -3 -8 -17 -6 -13 3 -31 5 -41 5 -10 1 -16 4 -13 9 2 4 -2 16 -10 27
-13 17 -16 18 -24 5 -15 -23 -12 -34 5 -20 13 11 14 8 8 -21 -3 -19 -9 -36
-14 -39 -11 -8 -15 -44 -4 -46 6 0 27 -8 48 -18 39 -17 39 -17 22 -43 -9 -14
-12 -22 -6 -19 7 5 11 -2 11 -17 0 -14 -7 -28 -16 -31 -19 -7 -37 2 -29 15 11
16 -7 9 -21 -8 -19 -26 -17 -32 9 -26 19 4 18 2 -5 -12 -16 -8 -28 -18 -28
-21 0 -6 57 2 93 12 13 4 12 -1 -8 -22 -29 -32 -32 -49 -7 -59 14 -5 15 -4 5
6 -19 19 -16 26 17 43 17 8 30 11 30 7 0 -4 6 -8 13 -9 44 -6 57 -9 64 -16 5
-4 3 -6 -2 -5 -34 10 -72 -30 -44 -46 7 -5 6 -12 -4 -23 -18 -21 -30 -82 -17
-82 6 0 10 4 10 8 0 5 15 19 33 32 17 12 26 17 20 9 -17 -18 -16 -29 3 -29 8
0 12 4 9 10 -3 6 4 10 17 9 13 0 18 -3 11 -5 -7 -3 -10 -11 -7 -18 3 -8 -11
-31 -31 -52 -30 -33 -35 -44 -31 -72 5 -36 3 -38 -16 -19 -8 9 -21 11 -33 6
-11 -4 -14 -8 -7 -8 6 -1 12 -8 12 -17 0 -10 -4 -12 -12 -7 -7 4 -20 8 -28 8
-8 0 -15 7 -15 15 0 8 6 14 13 12 6 -1 12 2 12 8 0 5 7 10 15 10 8 0 15 5 15
11 0 5 5 7 12 3 7 -4 8 -3 4 5 -6 9 -14 8 -32 -3 -13 -9 -32 -16 -43 -16 -11
0 -23 -4 -26 -10 -3 -6 1 -7 10 -4 11 5 14 2 9 -10 -3 -9 -10 -13 -15 -10 -5
3 -9 1 -9 -5 0 -5 5 -13 10 -16 14 -8 -6 -35 -25 -35 -8 0 -16 -6 -18 -12 -4
-9 -6 -9 -6 1 -1 8 6 23 16 33 9 10 13 21 9 26 -4 4 -18 -6 -31 -22 -24 -30
-51 -41 -60 -26 -3 5 3 14 14 20 26 13 16 40 -15 40 -31 0 -22 26 12 34 13 4
24 11 24 16 0 5 -12 3 -27 -5 -21 -11 -30 -12 -42 -2 -9 6 -13 7 -9 3 9 -10
-9 -36 -24 -36 -5 0 -5 7 0 17 7 11 5 21 -4 31 -15 14 -9 36 7 26 5 -3 6 -10
3 -16 -4 -7 -2 -8 4 -4 14 9 16 42 3 51 -5 3 -12 1 -16 -5 -3 -5 -12 -10 -18
-10 -7 0 -6 4 3 10 8 5 15 20 15 34 1 14 -3 22 -7 20 -4 -3 -8 -15 -9 -27 0
-21 -1 -21 -10 2 -5 14 -8 30 -5 37 3 8 -3 12 -15 11 -23 -2 -24 -15 -5 -43 8
-11 17 -41 21 -67 10 -63 56 -134 99 -152 19 -8 72 -17 118 -20 72 -5 87 -3
116 15 18 11 35 28 38 38 3 9 13 35 24 57 33 74 54 150 53 198 -1 51 -38 137
-60 137 -7 0 -13 5 -13 11 0 5 5 7 10 4 6 -3 10 0 10 7 0 18 -48 116 -49 101
-1 -7 -7 -13 -15 -13 -9 0 -12 7 -9 20 3 11 9 17 14 15 13 -9 -29 107 -54 146
-14 23 -28 34 -39 31z"/>
<path d="M245 679 c-4 -6 0 -18 8 -27 15 -14 15 -17 -1 -29 -9 -7 -12 -13 -7
-12 29 4 31 -4 7 -28 -19 -19 -23 -28 -13 -31 7 -2 17 1 20 7 5 7 12 2 20 -15
10 -22 9 -30 -4 -44 -8 -9 -15 -28 -15 -42 0 -14 -6 -31 -14 -38 -8 -6 -12
-18 -9 -26 7 -20 23 -18 23 4 0 12 8 17 30 17 25 0 29 -3 24 -20 -4 -14 -2
-16 4 -7 10 15 23 3 36 -32 5 -14 2 -17 -9 -12 -20 8 -42 14 -32 9 4 -3 7 -11
7 -19 0 -7 6 -11 14 -8 17 7 27 -63 11 -80 -19 -19 -26 -48 -14 -63 17 -19 4
-27 -14 -8 -9 8 -18 12 -20 8 -6 -10 13 -27 33 -31 28 -6 35 -22 16 -40 -16
-16 -18 -16 -37 7 -21 25 -25 21 -9 -10 8 -14 7 -19 -2 -20 -7 0 -21 -2 -31
-4 -13 -2 -17 1 -13 11 3 8 -1 14 -10 14 -10 0 -14 -6 -10 -15 4 -13 2 -14
-14 -5 -14 8 -20 8 -20 0 0 -8 -6 -8 -20 0 -31 17 -24 27 33 50 28 11 42 19
30 16 -13 -2 -23 1 -23 6 0 6 -8 4 -17 -4 -20 -17 -58 -15 -82 5 -12 9 -13 9
-7 -1 9 -15 -17 -27 -41 -17 -16 6 -15 8 7 20 l24 13 -24 4 c-14 1 -25 8 -25
13 0 6 -4 16 -9 23 -5 9 0 23 15 40 l24 26 -34 -24 -33 -23 7 34 c4 19 10 38
13 43 3 5 6 25 8 45 l2 36 -20 -45 c-33 -75 -31 -111 8 -177 44 -73 77 -100
134 -110 53 -9 63 -9 115 2 60 12 87 31 118 86 22 40 27 61 27 118 0 79 -12
121 -35 121 -19 0 -19 -9 1 -31 15 -16 14 -20 -6 -41 -13 -13 -20 -18 -16 -11
3 6 2 14 -3 17 -4 3 -7 19 -5 36 2 16 -1 30 -6 30 -6 0 -10 7 -10 15 0 12 4
13 19 5 11 -5 22 -10 24 -10 13 0 -33 106 -75 171 -26 42 -48 83 -48 92 0 20
-16 31 -25 16z"/>
</g>
</svg>
