<?xml version="1.0" standalone="no"?>
<!DOCTYPE svg PUBLIC "-//W3C//DTD SVG 20010904//EN"
 "http://www.w3.org/TR/2001/REC-SVG-20010904/DTD/svg10.dtd">
<svg version="1.0" xmlns="http://www.w3.org/2000/svg"
 width="1000.000000pt" height="750.000000pt" viewBox="0 0 1000.000000 750.000000"
 preserveAspectRatio="xMidYMid meet">
<metadata>
Created by potrace 1.11, written by Peter Selinger 2001-2013
</metadata>
<g transform="translate(0.000000,750.000000) scale(0.100000,-0.100000)"
fill="#000000" stroke="none">
<path d="M0 5110 c0 -1574 4 -2390 10 -2390 6 0 10 5 10 10 0 6 22 10 49 10
29 0 53 5 60 14 7 9 31 14 61 14 52 1 74 8 65 21 -2 5 18 11 45 15 28 4 50 11
50 15 0 5 7 11 14 14 11 4 13 1 9 -10 -5 -13 -2 -15 18 -10 13 4 29 7 34 8 6
0 1 4 -10 9 -15 6 -6 9 33 9 37 1 51 4 46 12 -5 8 3 10 24 7 17 -2 33 0 35 5
2 6 30 12 62 14 33 2 65 10 70 17 6 6 36 18 67 25 31 8 56 19 55 25 -1 6 20
13 49 16 41 4 51 8 48 23 -2 13 5 17 29 18 18 1 39 2 47 3 8 2 23 3 33 4 10 1
15 7 12 12 -3 5 -3 11 2 12 13 2 66 8 91 9 14 1 22 8 22 19 0 21 71 36 100 20
15 -8 18 -7 15 7 -2 16 5 18 54 18 31 0 62 3 68 8 7 5 19 7 27 4 23 -9 25 15
4 53 -11 20 -13 26 -4 15 9 -11 35 -44 58 -74 79 -99 239 -212 368 -260 109
-40 191 -54 315 -54 478 0 856 357 894 843 7 93 8 98 10 40 2 -44 5 -59 10
-45 5 11 7 27 6 35 -2 11 7 16 33 18 20 1 39 7 43 13 3 6 28 12 54 13 26 2 50
9 55 16 5 8 9 9 14 1 11 -16 46 -13 46 4 0 8 -5 15 -11 15 -5 0 -7 -4 -4 -10
3 -5 1 -10 -5 -10 -7 0 -10 6 -7 13 2 6 14 11 26 9 12 -1 30 5 39 14 18 18 30
3 15 -19 -4 -7 3 -1 16 13 13 14 20 20 17 14 -4 -8 3 -11 19 -10 14 0 25 4 25
8 0 4 21 5 48 2 31 -4 42 -2 34 4 -11 7 -9 10 7 15 15 4 23 -2 33 -23 15 -34
32 -40 87 -30 23 4 41 5 41 2 0 -2 7 1 15 8 8 6 19 9 25 5 5 -3 13 1 16 10 5
12 9 14 14 4 6 -9 21 -5 62 15 35 18 45 21 29 8 -16 -13 -20 -21 -12 -26 6 -4
11 -2 11 5 0 15 58 4 80 -16 21 -19 40 -19 68 1 12 8 27 12 32 9 6 -3 15 -3
22 1 21 13 58 13 58 1 0 -8 3 -9 8 -1 8 13 122 14 122 1 0 -5 7 -2 15 7 9 8
27 13 43 11 15 -2 30 -4 33 -4 4 -1 7 -7 6 -13 0 -7 1 -22 2 -33 1 -17 3 -18
11 -5 7 10 10 11 10 2 0 -7 12 -12 28 -11 15 0 36 -2 47 -4 11 -2 28 0 38 5
14 7 17 4 17 -16 0 -14 5 -28 10 -31 6 -3 10 -1 10 5 0 6 5 8 12 4 6 -4 18 2
26 12 11 14 13 15 9 3 -4 -13 2 -16 31 -16 63 0 82 -3 82 -14 0 -5 -6 -7 -12
-3 -7 4 -5 -2 5 -13 17 -20 17 -20 -6 -18 -20 2 -24 -1 -20 -16 6 -20 15 -24
27 -12 4 4 19 8 34 9 53 2 62 4 62 15 0 5 -5 7 -11 3 -7 -4 -10 -1 -7 7 3 8
12 16 22 17 15 3 16 -2 10 -32 -3 -20 -2 -36 2 -37 11 -1 36 -6 49 -10 6 -2
41 28 79 66 l69 70 -68 -75 c-37 -41 -72 -74 -77 -72 -5 1 -7 -2 -3 -8 8 -13
-39 -82 -50 -72 -5 4 -5 2 -2 -4 4 -6 -6 -38 -22 -71 -168 -345 -89 -757 197
-1023 124 -117 271 -193 431 -226 112 -22 304 -15 411 16 172 49 354 170 457
305 93 121 180 327 184 434 0 14 7 -5 14 -44 57 -300 269 -558 547 -665 129
-50 213 -63 368 -57 155 5 252 30 380 99 241 128 399 348 463 643 3 13 5 8 6
-11 2 -52 40 -163 88 -256 108 -211 296 -367 533 -443 72 -23 108 -28 230 -32
124 -4 158 -2 234 16 95 23 227 80 299 130 161 111 294 290 347 471 13 41 25
82 28 90 3 8 9 -2 14 -24 4 -22 11 -42 13 -45 3 -2 5 1056 5 2352 l0 2357
-314 0 -314 0 -6 -72 c-8 -107 -22 -352 -66 -1218 -64 -1246 -79 -1533 -100
-1926 -27 -493 -28 -450 18 -458 71 -13 168 -49 301 -113 120 -58 141 -72 210
-141 79 -81 125 -145 99 -141 -37 5 -37 -4 0 -38 36 -35 91 -113 78 -113 -3 0
-17 21 -32 47 -26 42 -29 45 -37 25 -10 -22 -61 -28 -84 -9 -7 5 -14 8 -14 6
-6 -16 -11 -55 -15 -121 -5 -67 -4 -78 10 -78 16 0 21 15 17 56 -1 18 6 23 40
28 62 10 69 -1 69 -109 l0 -92 -71 -5 c-41 -3 -75 -11 -79 -18 -6 -10 -68 -11
-296 -4 -159 5 -305 8 -324 6 -81 -5 -520 11 -520 20 0 5 5 6 10 3 6 -3 10 -2
10 4 0 17 -18 22 -27 7 -10 -18 -173 -35 -173 -17 0 6 10 12 23 12 12 1 31 2
42 3 19 1 75 38 75 49 0 3 -21 -1 -47 -9 -74 -23 -93 -19 -93 16 0 17 3 29 8
29 28 -5 49 5 59 26 6 14 7 25 2 25 -5 0 -9 7 -9 15 0 8 4 15 9 15 5 0 16 7
24 15 8 8 21 16 28 17 17 4 37 30 67 85 19 34 20 42 7 37 -9 -4 -26 -27 -39
-52 l-23 -46 -7 30 c-13 57 -94 132 -112 103 -3 -5 2 -9 10 -9 34 0 36 -35 7
-96 -15 -32 -29 -62 -30 -66 -8 -33 -14 -33 -49 1 l-37 36 20 32 c11 18 30 48
42 68 24 39 13 46 -26 18 -24 -16 -24 -16 4 35 38 70 112 151 182 198 32 21
80 56 107 77 89 69 216 119 359 142 41 7 43 13 23 58 -11 25 -33 397 -91 1567
-42 844 -81 1630 -86 1745 -5 116 -12 229 -15 253 l-5 42 -660 0 -659 0 0 -22
c0 -13 -4 -158 -10 -323 -5 -165 -12 -390 -15 -500 -3 -110 -7 -261 -10 -335
-3 -74 -7 -227 -10 -340 -3 -113 -8 -266 -10 -340 -3 -74 -14 -450 -25 -835
-11 -385 -22 -761 -26 -836 l-6 -136 50 -7 c28 -3 74 -15 104 -25 86 -30 289
-136 355 -185 53 -40 163 -165 163 -186 0 -4 -12 -5 -27 -3 -28 5 -28 5 7 -25
33 -27 113 -141 90 -127 -6 4 -26 31 -45 61 -19 30 -38 54 -41 54 -4 0 -1 -6
5 -14 9 -11 9 -20 2 -34 -9 -17 -16 -18 -53 -12 -24 5 -44 7 -45 6 -7 -6 -23
-113 -23 -147 0 -28 4 -39 15 -39 9 0 12 6 9 15 -4 8 -2 15 4 15 5 0 7 11 5
24 -4 21 0 24 42 30 75 12 83 -4 69 -141 l-7 -60 -70 -6 c-39 -3 -73 -11 -77
-17 -5 -8 -165 -8 -556 0 -302 5 -557 10 -567 10 -10 0 -15 5 -12 10 4 6 11 8
16 5 5 -4 9 -2 9 3 0 18 -14 22 -30 7 -20 -18 -170 -34 -170 -18 0 12 33 23
66 23 11 0 29 9 39 20 18 19 9 29 -11 11 -13 -13 -93 -18 -97 -7 -2 5 -1 22 1
38 3 20 10 28 24 28 10 0 16 4 13 10 -3 6 -1 10 5 10 6 0 10 8 8 18 -2 11 14
35 41 59 29 28 40 46 35 55 -5 7 -9 18 -9 23 0 17 -38 74 -53 80 -11 4 -12 2
-4 -8 8 -9 4 -28 -14 -72 -14 -33 -28 -69 -31 -80 -4 -11 -11 -28 -18 -37 -11
-17 -13 -16 -23 7 -6 14 -16 25 -22 25 -5 0 -10 6 -10 14 0 8 -5 16 -11 18 -7
2 -2 18 12 41 77 119 76 116 27 91 l-30 -16 28 54 c36 66 155 188 212 217 24
12 65 37 90 55 97 69 222 117 340 131 34 4 62 10 62 13 0 4 -6 27 -15 52 -11
35 -19 214 -35 845 -20 761 -77 2747 -79 2753 -1 1 -343 2 -761 2 l-760 0 -2
-567 c0 -313 -2 -593 -3 -623 -2 -30 -5 -572 -9 -1205 -4 -632 -9 -1176 -13
-1207 l-5 -57 38 -6 c103 -17 286 -86 329 -124 11 -10 47 -33 80 -51 65 -37
203 -166 228 -216 l16 -31 -27 5 c-26 5 -25 3 14 -34 53 -50 93 -114 70 -114
-8 0 -19 -7 -24 -16 -7 -13 -12 -11 -27 13 l-18 28 20 -18 c12 -10 24 -14 27
-9 13 22 -84 68 -102 50 -6 -6 -18 -5 -32 2 -20 11 -22 10 -17 -4 4 -9 3 -16
-2 -16 -9 0 -35 -119 -28 -127 3 -2 11 11 17 29 9 25 19 34 38 36 14 1 29 6
32 12 3 5 20 1 39 -11 34 -20 34 -20 27 -81 -3 -34 -6 -75 -6 -93 l0 -32 -71
-6 c-39 -3 -77 -11 -84 -17 -9 -7 -182 -7 -606 0 -327 6 -595 13 -597 15 -2 2
3 25 12 52 9 26 20 78 25 114 5 36 21 90 36 120 20 38 23 50 11 40 -10 -8 -24
-27 -32 -43 l-15 -28 -22 26 c-18 20 -29 25 -45 20 -68 -22 -125 -194 -92
-280 9 -25 8 -26 -29 -26 -57 0 -71 22 -71 107 0 189 131 421 296 525 183 116
322 173 446 185 l70 6 -7 36 c-4 20 -11 689 -16 1486 -5 798 -12 1604 -15
1793 l-6 342 -675 -2 -674 -3 -158 -310 c-86 -170 -431 -854 -766 -1520 -334
-665 -613 -1212 -619 -1214 -6 -2 -26 -19 -44 -38 l-34 -33 54 -43 c29 -24 73
-54 98 -67 25 -12 77 -55 116 -95 111 -112 184 -278 184 -418 0 -48 -4 -62
-25 -82 -33 -34 -51 -31 -71 10 -11 24 -23 35 -38 35 -42 0 -62 -12 -73 -41
-13 -35 1 -34 -408 -15 -148 7 -382 12 -520 11 -137 -2 -244 -1 -237 2 16 6
15 21 -3 39 -12 13 -16 11 -30 -16 -9 -18 -23 -30 -36 -30 -19 0 -20 4 -13 63
13 128 73 264 160 365 26 30 32 32 56 23 15 -6 42 -10 60 -10 121 2 150 2 210
-5 175 -19 348 -31 391 -28 44 4 46 5 30 19 -17 13 -16 14 7 7 33 -8 31 -8 62
0 24 7 43 38 30 50 -3 3 -16 6 -28 6 -36 0 -93 31 -87 46 12 32 -9 10 -32 -33
-15 -27 -24 -37 -20 -23 19 82 19 79 -11 90 -16 5 -36 15 -44 20 -57 39 -108
54 -185 53 -321 -2 -588 -252 -620 -581 l-8 -72 -83 0 c-98 0 -104 5 -104 98
0 178 111 403 263 531 57 48 238 138 344 171 172 53 332 46 514 -25 11 -4 20
5 32 32 9 21 300 704 648 1518 347 814 635 1488 640 1498 9 16 -83 17 -1861
17 l-1870 0 0 -2390z m5641 -2120 c224 -17 323 -44 365 -98 12 -17 6 -65 -7
-56 -5 3 -9 -6 -9 -20 0 -14 -5 -26 -12 -26 -6 0 -9 -2 -6 -5 8 -9 -104 -115
-122 -115 -9 0 -20 -3 -24 -7 -4 -5 -11 -8 -14 -8 -4 0 -32 -13 -62 -29 -30
-15 -66 -30 -80 -33 -13 -2 -27 -7 -30 -11 -3 -4 -12 -9 -20 -12 -35 -11 -242
2 -306 19 -53 14 -185 7 -223 -12 -47 -23 -62 -22 -100 12 -43 39 -52 91 -22
131 31 43 42 75 28 89 -18 18 -48 13 -90 -16 l-39 -27 -24 27 c-31 36 -30 56
3 96 45 54 102 75 263 100 79 12 373 13 531 1z m1793 -8 c38 -7 85 -17 103
-23 36 -12 65 -50 43 -57 -9 -3 -9 -6 1 -13 11 -7 10 -9 -3 -9 -10 0 -22 -9
-28 -20 -6 -11 -14 -19 -18 -18 -4 2 -20 -10 -36 -25 -16 -15 -36 -25 -43 -22
-9 3 -11 0 -7 -7 5 -8 1 -9 -12 -4 -10 4 -15 4 -11 0 10 -10 -101 -64 -119
-57 -8 3 -14 0 -14 -6 0 -6 -15 -10 -32 -10 -18 0 -43 -2 -56 -5 -12 -3 -55
-6 -95 -7 -64 -2 -81 2 -149 34 -85 40 -198 71 -198 54 0 -6 -2 -8 -5 -6 -7 8
7 49 15 44 5 -3 12 5 16 17 4 13 2 24 -5 26 -13 4 -15 71 -3 90 5 6 39 18 78
26 83 17 470 15 578 -2z m1766 -7 c68 -25 75 -34 49 -61 -12 -13 -26 -21 -30
-18 -5 3 -9 0 -9 -5 0 -6 -3 -10 -7 -9 -5 1 -30 -9 -58 -21 -129 -59 -347 -65
-496 -14 l-84 28 -3 47 -3 46 63 16 c92 22 513 16 578 -9z"/>
<path d="M3837 7493 c-3 -5 -172 -399 -377 -878 -204 -478 -436 -1021 -515
-1205 -79 -184 -143 -336 -141 -337 3 -3 1226 2411 1226 2421 0 9 -188 8 -193
-1z"/>
<path d="M7240 7455 c0 -64 79 -2752 82 -2795 2 -19 20 579 41 1330 20 751 40
1398 43 1438 l6 72 -86 0 -86 0 0 -45z"/>
<path d="M8910 7483 c0 -56 180 -3517 183 -3520 2 -2 7 68 10 154 4 87 43 867
87 1733 44 866 80 1592 80 1613 l0 37 -180 0 c-165 0 -180 -1 -180 -17z"/>
<path d="M1930 3811 c-19 -6 1 -12 75 -25 55 -10 126 -24 158 -32 32 -8 79
-14 104 -14 25 0 90 -7 144 -16 55 -8 109 -14 122 -12 19 3 16 7 -23 30 -41
24 -57 27 -180 31 -74 3 -171 12 -215 20 -113 21 -156 25 -185 18z"/>
</g>
</svg>
