<?xml version="1.0" standalone="no"?>
<!DOCTYPE svg PUBLIC "-//W3C//DTD SVG 20010904//EN"
 "http://www.w3.org/TR/2001/REC-SVG-20010904/DTD/svg10.dtd">
<svg version="1.0" xmlns="http://www.w3.org/2000/svg"
 width="284.000000pt" height="303.000000pt" viewBox="0 0 284.000000 303.000000"
 preserveAspectRatio="xMidYMid meet">
<metadata>
Created by potrace 1.11, written by Peter Selinger 2001-2013
</metadata>
<g transform="translate(0.000000,303.000000) scale(0.100000,-0.100000)"
fill="#000000" stroke="none">
<path d="M1039 3014 c-202 -36 -394 -139 -535 -287 -38 -39 -80 -87 -94 -105
l-25 -33 -50 11 c-168 38 -335 -95 -335 -266 0 -105 85 -227 179 -255 l41 -12
0 -62 c0 -373 258 -746 616 -892 140 -57 254 -76 414 -69 74 3 147 8 161 11
l27 7 -15 -54 c-14 -51 -13 -79 3 -240 7 -71 -14 -147 -57 -206 -43 -59 -126
-115 -319 -217 -91 -48 -168 -92 -172 -99 -14 -21 -8 -41 30 -105 49 -83 99
-141 122 -141 11 0 79 48 152 107 239 191 312 229 430 221 75 -5 129 -27 207
-84 88 -63 241 -75 376 -30 81 28 174 75 252 128 l43 29 27 -20 c43 -31 107
-42 165 -26 147 38 197 231 86 333 l-26 23 20 62 c28 87 34 233 14 321 -38
162 -161 319 -306 389 -104 51 -178 68 -295 68 l-100 1 37 76 c54 113 88 240
96 361 l7 103 51 19 c97 36 174 149 174 254 0 96 -63 196 -154 242 -41 21 -65
27 -121 27 -38 0 -80 -5 -92 -12 -19 -11 -25 -7 -57 36 -47 65 -178 188 -246
233 -216 143 -482 198 -731 153z m359 -100 c222 -45 430 -183 562 -374 25 -36
53 -66 63 -68 10 -2 37 6 60 17 93 45 195 11 243 -81 21 -41 18 -114 -8 -160
-26 -46 -91 -88 -134 -88 -58 0 -65 -15 -69 -135 -5 -179 -54 -342 -146 -485
-28 -43 -47 -58 -109 -90 -98 -50 -204 -125 -290 -206 -78 -74 -110 -86 -265
-104 -202 -24 -420 32 -600 153 -115 78 -232 212 -297 342 -60 119 -105 337
-91 443 6 48 -20 82 -64 82 -43 0 -105 41 -130 85 -85 151 74 321 230 246 24
-11 48 -21 55 -21 6 0 23 17 39 38 122 166 212 249 348 318 98 51 151 70 235
88 89 20 273 20 368 0z m1312 -2263 c40 -21 80 -89 80 -134 0 -47 -37 -114
-76 -138 -76 -47 -184 -17 -224 62 -38 73 -15 165 52 208 42 27 120 28 168 2z"/>
<path d="M885 2653 c-16 -8 -42 -27 -57 -40 -60 -57 -105 -220 -93 -338 8 -76
45 -206 60 -212 7 -2 48 5 91 16 227 57 445 52 732 -16 18 -4 25 1 38 33 28
67 47 193 40 271 -14 171 -93 288 -202 301 -91 10 -186 -63 -251 -191 l-28
-57 -29 59 c-71 149 -203 226 -301 174z m134 -42 c81 -42 161 -176 169 -283 4
-46 8 -58 21 -58 13 0 20 15 29 61 32 174 150 310 256 296 32 -5 50 -16 83
-50 56 -59 78 -131 77 -257 0 -98 -25 -210 -45 -210 -6 0 -57 10 -112 22 -151
32 -408 32 -565 -1 -62 -13 -115 -21 -118 -18 -17 17 -37 134 -37 217 1 138
41 235 117 281 40 24 77 24 125 0z"/>
<path d="M964 2402 c-37 -25 -45 -109 -14 -159 15 -25 27 -33 50 -33 37 0 50
23 50 90 0 44 -5 56 -29 81 -31 30 -39 33 -57 21z"/>
<path d="M1427 2399 c-45 -27 -65 -140 -29 -172 10 -10 28 -17 40 -17 54 0 85
137 42 180 -23 23 -28 24 -53 9z"/>
<path d="M832 1778 c-45 -45 52 -198 160 -250 129 -63 300 -65 440 -5 77 33
178 155 178 216 0 23 -31 44 -53 35 -8 -3 -24 -27 -37 -54 -53 -113 -174 -169
-341 -157 -131 9 -220 61 -265 154 -36 74 -55 88 -82 61z"/>
</g>
</svg>
