<?xml version="1.0" standalone="no"?>
<!DOCTYPE svg PUBLIC "-//W3C//DTD SVG 20010904//EN"
 "http://www.w3.org/TR/2001/REC-SVG-20010904/DTD/svg10.dtd">
<svg version="1.0" xmlns="http://www.w3.org/2000/svg"
 width="375.000000pt" height="448.000000pt" viewBox="0 0 375.000000 448.000000"
 preserveAspectRatio="xMidYMid meet">
<metadata>
Created by potrace 1.11, written by Peter Selinger 2001-2013
</metadata>
<g transform="translate(0.000000,448.000000) scale(0.100000,-0.100000)"
fill="#000000" stroke="none">
<path d="M1821 4424 c-29 -8 -65 -22 -80 -32 -44 -30 -224 -119 -255 -126 -23
-6 -26 -10 -16 -16 8 -5 12 -12 8 -15 -3 -3 -12 0 -19 7 -10 9 -56 14 -160 15
-150 2 -206 -5 -201 -27 2 -8 -3 -10 -13 -6 -8 3 -24 -3 -33 -12 -10 -10 -26
-21 -35 -25 -9 -3 -17 -13 -17 -21 0 -7 -9 -16 -21 -19 -11 -3 -23 -15 -26
-26 -3 -11 -9 -19 -13 -16 -8 5 -60 -57 -60 -71 0 -4 -6 -15 -13 -23 -8 -9
-24 -43 -37 -76 -37 -91 -30 -171 27 -301 9 -21 15 -49 14 -61 -1 -11 2 -24 7
-27 5 -3 7 -17 4 -31 -2 -14 0 -31 5 -38 6 -6 13 -37 17 -67 7 -61 33 -148 49
-169 6 -7 21 -17 34 -22 13 -5 23 -16 23 -25 0 -12 6 -15 25 -10 21 5 27 2 37
-19 12 -26 23 -28 72 -9 11 4 16 1 16 -10 0 -10 6 -29 14 -44 9 -18 11 -35 5
-50 -10 -27 -33 -25 -37 4 -2 17 -10 20 -55 18 -76 -2 -77 -2 -77 -25 0 -20 1
-21 25 -5 13 9 38 16 55 16 24 0 33 -6 41 -27 11 -29 37 -63 49 -63 4 0 13 19
20 43 11 31 15 37 17 21 3 -18 13 -22 61 -27 65 -8 89 -12 116 -23 18 -7 18
-6 1 19 -9 15 -21 27 -25 27 -4 0 -20 19 -35 42 l-28 41 28 -22 c20 -15 32
-18 39 -11 7 7 4 15 -10 26 -10 8 -13 13 -6 9 18 -9 15 -1 -11 27 -12 13 -28
23 -35 20 -7 -2 -12 3 -12 11 0 8 -7 18 -15 21 -12 4 -14 10 -5 25 7 15 6 23
-6 35 -16 16 -11 56 7 56 5 0 9 5 9 11 0 6 -7 8 -16 5 -12 -5 -15 -2 -10 10 3
8 6 18 6 20 0 3 5 2 10 -1 6 -3 10 -1 10 4 0 6 -5 11 -11 11 -7 0 -8 14 -4 40
5 29 3 44 -8 55 -14 13 -16 13 -23 -7 -7 -22 -7 -22 -15 5 -5 19 -2 41 10 70
10 23 27 79 37 125 10 45 21 82 26 82 14 0 9 -38 -12 -101 -12 -34 -19 -64
-16 -66 8 -9 35 64 46 127 6 33 17 74 25 92 16 38 18 29 6 -25 -8 -35 1 -62
12 -35 4 9 6 8 7 -2 0 -10 6 -6 15 10 13 22 14 23 15 5 0 -16 2 -17 9 -5 6 8
7 19 5 25 -3 5 2 1 10 -9 16 -19 16 -19 16 3 0 13 -8 30 -17 37 -17 13 -17 14
0 8 20 -7 25 21 5 29 -8 3 -5 6 5 6 10 1 16 5 13 10 -8 12 20 22 39 15 8 -4
15 -17 15 -30 0 -15 6 -24 15 -24 10 0 15 -10 15 -34 0 -29 3 -33 25 -33 14 0
25 3 25 7 0 5 9 6 21 3 29 -8 40 -44 40 -142 1 -102 14 -82 22 32 4 61 2 80
-9 84 -8 3 -14 13 -14 22 0 13 2 14 9 2 8 -12 11 -9 16 12 4 15 3 33 -2 40 -6
8 -6 20 2 34 9 18 14 20 24 10 10 -9 11 -8 5 8 -5 15 -4 17 5 9 15 -14 26 -98
11 -89 -12 8 -13 -15 0 -35 14 -22 22 -7 25 47 7 99 41 171 67 145 8 -8 8 -15
-1 -26 -13 -16 -18 -72 -8 -83 4 -3 7 5 7 20 0 35 18 44 20 10 3 -64 5 -83 12
-83 4 0 10 9 13 20 9 29 43 26 51 -5 3 -14 1 -31 -5 -39 -10 -11 -10 -42 -2
-132 1 -7 8 -14 16 -18 13 -4 14 2 9 36 -5 30 -4 39 4 34 14 -8 14 3 3 62 -10
49 3 58 14 10 4 -18 9 -26 11 -18 3 8 -2 40 -10 70 -8 30 -13 57 -11 59 3 2
16 -21 30 -50 23 -51 25 -49 10 11 -6 25 -6 25 11 5 16 -20 16 -19 12 8 -4 22
-3 25 8 16 8 -6 14 -20 14 -30 0 -11 5 -19 10 -19 14 0 13 53 -1 67 -6 6 -8
16 -4 23 5 8 15 4 32 -12 17 -16 24 -18 21 -8 -1 9 2 18 7 20 6 3 11 -5 13
-17 2 -13 7 -23 12 -23 4 0 11 -12 15 -27 4 -16 9 -23 12 -16 2 6 -3 27 -11
47 -8 20 -11 36 -6 36 12 0 37 -56 48 -110 l10 -45 1 36 c1 20 -6 55 -14 78
-12 35 -12 41 0 41 7 0 19 -16 26 -34 7 -19 16 -33 20 -30 9 5 5 52 -6 79 -8
18 -7 18 8 7 9 -8 22 -29 29 -48 13 -37 23 -43 32 -18 3 8 2 12 -4 9 -6 -3
-10 -2 -10 3 0 6 7 12 15 15 10 4 22 -10 40 -48 14 -30 25 -60 25 -67 0 -7 5
-20 11 -28 8 -11 9 -8 4 15 -3 17 -7 37 -9 45 -1 8 -8 26 -15 39 -11 19 -11
23 0 19 8 -3 19 -22 25 -44 6 -21 14 -37 19 -36 4 2 11 -2 16 -9 4 -8 11 -11
14 -8 7 8 -16 59 -27 59 -4 0 -8 7 -8 15 0 22 9 19 32 -10 11 -14 26 -25 33
-25 9 0 12 -6 9 -15 -4 -10 0 -15 15 -15 12 0 21 -5 21 -11 0 -5 -6 -7 -12 -3
-7 4 -10 3 -6 -1 5 -5 20 -10 34 -11 21 -2 23 0 13 12 -9 11 -8 14 5 14 9 0
16 -4 16 -10 0 -5 11 -12 25 -16 14 -3 25 -10 25 -14 0 -4 10 -10 23 -14 31
-8 63 -63 84 -144 12 -44 23 -67 31 -64 6 2 12 -3 12 -12 0 -9 -6 -13 -14 -10
-10 4 -15 -9 -21 -51 -11 -94 -60 -117 -125 -61 -21 18 -22 18 -10 2 14 -18
13 -19 -2 -13 -11 4 -19 0 -23 -12 -3 -10 -23 -26 -45 -36 -39 -18 -40 -19
-40 -68 0 -38 5 -56 21 -73 19 -20 19 -24 6 -50 -8 -16 -27 -42 -41 -57 l-26
-28 34 -14 c37 -16 56 -63 30 -78 -10 -6 -11 -13 -2 -32 8 -17 8 -39 1 -75 -6
-30 -7 -69 -2 -96 9 -49 13 -172 7 -244 -2 -25 1 -48 6 -52 7 -5 7 -11 -2 -20
-6 -6 -12 -21 -12 -31 0 -10 -9 -21 -20 -24 -11 -3 -20 -9 -20 -14 0 -5 -9 -9
-20 -9 -11 0 -20 7 -20 15 0 8 5 15 11 15 5 0 7 5 4 10 -3 6 -15 10 -27 10
-18 0 -20 -4 -14 -32 l6 -32 -29 28 c-24 23 -34 26 -64 21 -27 -5 -36 -13 -40
-31 -3 -17 -1 -22 7 -16 19 14 41 8 42 -13 2 -41 4 -45 27 -43 27 2 107 -47
107 -66 0 -8 -7 -16 -15 -20 -8 -3 -15 -9 -14 -13 7 -40 -22 -58 -49 -31 -9 9
-12 7 -12 -10 0 -14 6 -22 16 -22 11 0 15 -6 11 -20 -6 -23 3 -26 23 -7 8 6
12 8 8 3 -4 -4 -1 -15 7 -23 10 -9 12 -25 8 -46 -8 -44 -19 -54 -43 -39 -11 6
-25 12 -31 12 -6 0 -19 10 -30 23 -15 18 -20 19 -28 8 -9 -14 -31 -7 -31 10 0
6 5 7 12 3 7 -4 8 -3 4 5 -6 9 -11 9 -22 0 -12 -10 -18 -9 -32 5 -16 17 -16
18 7 11 17 -5 21 -4 16 5 -4 7 -19 10 -33 7 -17 -3 -35 2 -51 14 -13 10 -32
19 -42 19 -16 0 -17 -3 -7 -25 10 -23 21 -30 42 -26 4 1 14 -4 22 -10 12 -9
12 -15 2 -28 -11 -14 -11 -14 3 -3 13 10 21 9 42 -8 14 -11 31 -20 38 -20 9 0
10 -3 2 -11 -8 -8 0 -21 28 -46 22 -20 36 -40 32 -47 -4 -6 -1 -6 9 2 8 7 23
10 32 6 11 -4 16 -1 16 12 0 17 1 16 15 -2 20 -26 19 -34 -5 -34 -10 0 -25
-10 -31 -22 -6 -12 -20 -31 -30 -42 -11 -11 -19 -25 -19 -31 0 -19 -43 -52
-74 -58 -22 -4 -30 0 -34 15 -2 10 -18 26 -34 34 -16 8 -37 22 -46 30 -62 54
-120 92 -130 82 -6 -6 -12 -6 -16 0 -3 6 -2 13 4 17 5 3 10 11 10 16 0 6 -4 7
-10 4 -16 -10 -70 37 -70 61 0 19 116 187 140 204 17 12 41 73 35 90 -4 12 -2
20 4 20 6 0 11 -5 11 -12 0 -6 14 1 30 17 17 16 30 35 30 43 0 9 6 12 16 8 9
-3 18 -6 20 -6 2 0 4 -7 4 -16 0 -9 7 -14 17 -12 24 4 28 28 5 28 -11 0 -23 7
-26 16 -9 23 -8 24 12 17 14 -5 15 -3 5 7 -11 11 -17 10 -36 -8 -13 -12 -32
-22 -43 -22 -11 0 -25 -5 -32 -12 -14 -14 -82 -19 -82 -6 0 13 -38 9 -43 -4
-3 -10 -9 -10 -24 -1 -16 9 -23 9 -32 0 -9 -9 -14 -8 -21 3 -8 12 -10 12 -16
-3 -8 -21 -37 -22 -58 -2 -9 9 -29 15 -48 14 -18 -2 -43 3 -56 10 -13 7 -31
10 -39 6 -9 -3 -33 6 -55 20 -21 14 -43 23 -49 19 -6 -3 -16 1 -22 11 -19 25
-84 28 -101 4 -7 -10 -16 -16 -21 -11 -4 4 -5 -3 -2 -16 8 -32 -38 -53 -134
-61 -43 -4 -81 -9 -84 -13 -4 -3 1 -27 9 -52 11 -32 13 -53 6 -70 -11 -30 -5
-36 36 -36 32 0 84 -35 84 -57 0 -6 7 -16 15 -23 8 -7 15 -17 15 -22 0 -6 -6
-6 -14 1 -15 13 -32 -1 -22 -18 3 -5 -1 -14 -9 -21 -9 -7 -13 -20 -10 -29 3
-11 -5 -22 -23 -33 -15 -9 -38 -27 -51 -39 -15 -14 -40 -24 -72 -27 -47 -4
-48 -5 -54 -46 -10 -59 -17 -69 -37 -54 -15 11 -15 18 -4 50 16 43 16 43 -64
83 -65 33 -82 52 -74 84 4 17 1 22 -8 18 -8 -2 -22 1 -33 9 -10 8 -29 14 -41
14 -27 0 -118 -75 -155 -127 -26 -36 -26 -42 -22 -143 5 -131 9 -147 32 -155
20 -6 41 -45 41 -76 0 -11 12 -40 26 -65 14 -24 23 -51 20 -60 -10 -26 34 -96
114 -179 42 -44 80 -88 83 -97 3 -9 24 -22 45 -28 22 -5 73 -34 113 -64 130
-94 321 -162 510 -181 51 -6 56 -8 67 -38 9 -25 9 -40 0 -64 -9 -24 -9 -43 0
-82 16 -68 8 -85 -32 -74 -17 4 -72 8 -121 7 -79 -1 -99 -5 -152 -30 l-60 -29
1 77 c2 70 0 78 -16 78 -10 0 -18 5 -18 12 0 6 -2 9 -4 7 -3 -3 -10 -65 -16
-139 -6 -74 -13 -156 -15 -181 -10 -110 33 -255 94 -319 47 -50 103 -63 132
-31 20 21 20 21 -1 21 -11 0 -20 5 -20 10 0 6 11 8 25 4 14 -3 50 -3 81 1 47
6 53 9 43 21 -6 8 -8 18 -4 22 4 4 10 1 12 -5 7 -20 22 -16 63 17 29 23 37 35
33 51 -5 18 -3 20 16 14 21 -6 25 0 22 38 -3 20 15 23 22 4 7 -18 2 -66 -8
-92 -5 -13 -5 -17 2 -10 67 67 55 405 -21 560 -19 39 -37 89 -40 113 -6 39 -4
43 20 52 37 14 137 12 158 -3 14 -10 17 -22 13 -43 -3 -16 -12 -72 -21 -124
-9 -52 -24 -119 -32 -148 -12 -42 -14 -79 -9 -175 4 -67 11 -136 16 -154 17
-55 128 -143 198 -158 33 -7 34 -6 18 9 -9 10 -20 28 -23 42 -3 13 -10 24 -16
24 -5 0 -6 5 -3 10 11 19 25 10 25 -16 0 -14 4 -23 9 -19 5 3 12 2 15 -3 10
-16 92 -2 150 27 34 16 77 46 96 66 l35 36 0 171 c0 126 -3 172 -12 175 -9 3
-11 18 -7 47 4 29 2 46 -6 51 -10 6 -12 -7 -8 -59 3 -49 1 -66 -9 -66 -7 0
-52 12 -100 26 -73 21 -104 25 -183 22 l-95 -3 3 40 c2 22 8 45 13 51 5 6 6
14 3 17 -4 4 1 18 10 31 20 31 20 50 1 66 -28 23 -15 31 14 9 34 -25 68 -23
220 18 195 51 315 103 423 185 101 76 121 102 113 148 -7 47 40 130 99 172 28
19 52 47 66 79 13 27 31 51 41 54 19 6 29 34 29 85 0 59 10 80 36 80 14 0 28
7 31 17 9 23 -23 174 -39 185 -7 5 -26 7 -43 6 -16 -1 -41 5 -55 14 -14 9 -37
22 -52 29 -27 12 -28 15 -28 92 0 92 -13 127 -69 181 -37 36 -61 41 -61 12 0
-23 -43 -45 -64 -34 -12 7 -26 7 -42 0 -20 -10 -22 -9 -17 5 4 10 2 14 -4 10
-5 -3 -27 8 -47 25 -34 28 -38 35 -33 68 2 20 0 44 -5 53 -14 26 -19 85 -7 92
5 4 15 2 22 -3 20 -15 59 -22 54 -9 -2 6 -14 12 -27 12 -35 0 -47 51 -19 81
12 13 27 20 35 17 17 -6 18 1 4 28 -9 15 -7 21 7 26 10 4 22 13 26 20 7 11 12
11 23 2 9 -7 14 -8 14 -1 0 6 9 14 20 17 11 3 20 11 20 17 0 19 -56 0 -89 -31
-39 -36 -56 -39 -71 -11 -8 16 -7 24 4 36 9 8 20 12 26 9 21 -13 9 24 -20 60
-29 37 -39 65 -21 65 4 0 6 12 3 28 -5 27 -5 27 17 8 28 -26 29 0 0 30 -26 28
-38 119 -14 110 20 -7 19 3 -1 26 -10 10 -19 36 -21 58 -4 40 -4 40 23 30 22
-9 25 -8 20 5 -3 8 -1 15 5 15 11 0 61 -30 70 -43 3 -4 23 -9 44 -10 36 -2 39
0 47 32 9 32 7 36 -34 72 -36 31 -41 40 -30 51 11 11 13 11 10 0 -2 -8 8 -21
22 -30 25 -17 25 -17 -3 19 -31 41 -33 49 -13 49 16 0 45 -41 56 -79 l8 -26 1
26 c1 31 30 59 91 89 54 27 81 50 74 62 -3 5 5 18 18 29 18 16 20 22 9 26 -11
4 -9 10 8 22 17 13 27 42 46 136 13 65 23 137 20 159 -9 95 -53 232 -102 316
-65 112 -218 284 -280 316 -21 10 -41 24 -46 31 -15 23 -107 46 -161 39 -158
-19 -165 -19 -207 -2 -23 9 -67 36 -98 60 -88 68 -149 80 -260 50z m636 -2241
c8 -25 8 -43 1 -56 -5 -10 -6 -26 -2 -35 4 -9 6 -20 6 -25 -1 -4 9 -5 23 -1
20 5 25 2 25 -12 1 -18 1 -18 15 1 14 18 13 20 -20 34 -33 15 -47 31 -25 31 5
0 7 7 3 16 -5 14 -3 15 18 2 68 -39 89 -54 89 -64 0 -7 17 -15 38 -19 20 -4
45 -14 55 -22 10 -10 17 -12 17 -5 0 7 6 12 14 12 7 0 19 7 26 15 9 10 17 12
30 5 9 -5 20 -7 23 -3 6 5 27 -39 27 -56 0 -4 -16 -13 -35 -21 -19 -8 -44 -24
-55 -35 -19 -20 -30 -22 -103 -20 -45 2 -93 8 -107 13 -35 14 -70 46 -70 66 0
9 -4 16 -9 16 -13 0 -38 61 -37 91 1 15 12 36 26 48 14 11 19 20 13 21 -7 0
-13 9 -13 20 0 32 14 23 27 -17z m-1430 -439 c25 -19 32 -31 28 -45 -4 -13 -2
-19 9 -19 9 0 13 -6 10 -14 -3 -8 -1 -17 5 -21 6 -3 11 -17 11 -31 0 -16 6
-24 18 -24 9 0 23 -9 30 -21 7 -11 19 -18 26 -16 8 3 26 -1 42 -9 16 -8 38
-13 51 -10 12 4 25 2 28 -4 3 -5 15 -15 27 -21 19 -10 20 -9 14 17 -7 28 -7
28 12 11 11 -10 26 -17 34 -15 7 1 14 -2 15 -7 1 -6 -28 -16 -65 -22 -52 -10
-74 -10 -99 -1 -18 7 -33 16 -33 20 0 4 -9 8 -21 8 -11 0 -40 5 -65 11 -33 9
-44 16 -44 30 0 12 -10 23 -26 29 -14 6 -23 14 -20 19 10 15 -4 39 -26 44 -15
4 -18 11 -13 26 8 25 -7 27 -29 5 -9 -8 -20 -12 -26 -9 -5 3 -10 1 -10 -5 0
-6 -4 -8 -10 -5 -18 11 -11 25 13 26 16 1 18 2 5 6 -10 2 -18 11 -18 19 0 16
16 19 25 4 9 -15 42 -12 60 6 12 12 13 19 4 30 -18 22 1 16 38 -12z m1642 -45
c-11 -10 -18 -22 -15 -27 9 -15 -34 -22 -54 -10 -23 15 -49 4 -47 -19 1 -20
-41 -83 -56 -83 -21 0 17 -29 46 -36 27 -6 91 -31 107 -42 2 -1 -14 -18 -35
-37 -27 -23 -42 -30 -47 -22 -4 6 -2 15 5 20 8 6 5 7 -6 3 -13 -4 -20 0 -24
14 -3 11 -9 20 -14 20 -16 0 -10 -20 11 -37 11 -10 20 -20 20 -24 0 -4 -26
-19 -57 -35 -32 -15 -66 -37 -75 -48 -13 -16 -17 -17 -12 -4 7 22 -13 58 -32
58 -11 0 -14 5 -10 17 4 9 1 20 -6 24 -9 6 -8 11 3 25 13 15 12 16 -11 9 -32
-9 -60 -34 -60 -52 0 -10 -6 -12 -21 -8 -17 6 -20 3 -16 -12 3 -10 11 -40 17
-68 7 -27 18 -56 23 -63 20 -26 -5 -25 -29 1 -14 15 -22 27 -19 27 3 0 -1 14
-10 30 -15 29 -55 43 -55 19 0 -6 -8 -8 -18 -5 -12 4 -26 -1 -37 -14 -12 -13
-25 -18 -38 -14 -16 5 -19 3 -13 -11 4 -13 2 -16 -9 -12 -8 4 -17 2 -20 -3 -7
-11 -64 -10 -71 2 -9 15 -24 8 -24 -11 0 -11 9 -23 21 -26 11 -4 18 -13 16
-20 -3 -7 1 -12 10 -11 16 1 51 -48 52 -73 1 -10 -6 -11 -26 -6 -16 4 -52 8
-80 8 -58 0 -62 3 -35 23 16 13 16 14 -2 7 -13 -4 -17 -3 -12 5 3 6 2 14 -4
17 -6 4 -8 16 -4 27 4 13 2 18 -4 14 -6 -3 -14 -1 -18 5 -3 6 0 15 7 20 10 6
11 9 2 9 -7 0 -13 4 -13 10 0 5 7 7 15 4 8 -4 15 -1 15 5 0 16 -15 14 -61 -8
-34 -17 -41 -17 -46 -5 -7 20 -28 18 -31 -3 -11 -113 -12 -154 -4 -149 6 4 13
3 16 -2 6 -10 -19 -13 -52 -6 -18 4 -22 9 -17 25 4 11 1 26 -5 34 -6 8 -9 19
-5 24 8 14 -16 131 -27 131 -5 0 -6 -23 -2 -52 7 -48 6 -51 -12 -43 -10 4 -32
13 -49 19 -41 15 -55 25 -55 39 0 6 6 3 13 -7 12 -17 15 -17 30 -2 18 19 15
105 -5 117 -17 10 -19 7 -20 -30 -1 -44 -18 -50 -18 -7 0 20 -4 36 -9 36 -13
0 -21 -93 -9 -107 22 -27 -22 -13 -57 18 -42 37 -44 54 -7 73 15 8 21 15 13
16 -9 0 -11 7 -8 21 9 34 -34 67 -46 35 -4 -10 0 -12 14 -9 25 7 24 -9 -2 -25
-24 -16 -23 -17 -38 27 -16 48 -14 54 13 47 17 -4 26 -1 30 10 5 13 10 13 35
-5 21 -15 32 -18 37 -10 5 8 10 7 16 -5 5 -9 22 -16 39 -16 17 0 32 -6 35 -15
4 -9 11 -15 18 -14 18 2 56 -13 56 -22 0 -5 7 -9 15 -9 9 0 15 -9 15 -21 0
-17 3 -19 13 -10 10 8 18 7 31 -2 11 -8 49 -12 111 -10 52 1 95 -2 95 -6 0
-10 64 -10 70 0 4 5 27 9 53 10 40 2 49 6 60 28 8 16 20 25 30 23 10 -2 20 4
23 13 3 8 10 15 15 15 6 0 20 9 31 20 12 11 27 19 33 16 5 -2 18 3 27 11 13
11 15 21 8 39 -6 14 -6 26 0 29 6 4 10 2 10 -4 0 -6 9 -15 20 -21 16 -9 24 -5
46 19 14 17 36 31 48 33 13 2 20 9 18 20 -1 9 6 22 17 27 10 6 22 22 25 36 5
21 11 24 30 19 14 -3 41 2 65 13 24 11 55 18 72 15 l29 -4 -21 -19z m-1303
-302 c8 -4 14 -13 14 -19 0 -23 74 -109 123 -142 28 -20 60 -42 70 -49 20 -16
23 -47 5 -48 -73 -5 -94 -2 -105 11 -10 12 -15 13 -32 3 -27 -17 -31 -16 -31
2 0 8 -6 15 -12 15 -7 0 -24 6 -38 13 -14 8 -39 16 -55 20 -43 8 -152 60 -137
65 7 2 10 8 6 13 -3 5 4 9 15 9 10 0 22 -6 25 -12 3 -7 4 -4 3 7 -1 11 -9 23
-17 28 -10 5 -7 6 8 3 12 -2 22 0 22 4 0 5 16 17 35 26 21 10 44 33 58 56 17
31 23 36 26 22 2 -11 9 -23 17 -27z m885 -899 c50 -14 59 -32 30 -59 -11 -11
-21 -24 -21 -28 0 -5 -9 -7 -20 -4 -14 4 -20 0 -20 -10 0 -21 -20 -33 -30 -17
-10 16 -31 4 -24 -14 3 -8 1 -17 -5 -21 -6 -3 -15 5 -20 18 -11 29 -64 73 -69
58 -4 -13 -32 -15 -32 -2 0 6 5 13 10 16 15 9 2 25 -21 25 -15 0 -20 6 -17 23
2 16 12 24 38 29 46 9 150 2 201 -14z m-613 3 c18 -11 -16 -71 -40 -71 -17 0
-22 -10 -19 -37 1 -7 -3 -13 -9 -13 -5 0 -10 5 -10 10 0 7 -6 7 -19 0 -23 -12
-114 18 -153 50 -23 19 -23 19 -3 34 11 8 38 19 60 25 51 11 176 13 193 2z"/>
<path d="M1525 3450 c-10 -11 -24 -20 -31 -20 -35 0 -104 -86 -104 -129 0 -14
-8 -21 -27 -23 -26 -3 -25 -5 15 -18 32 -10 45 -11 54 -2 19 19 104 14 148 -8
42 -21 90 -27 90 -10 0 6 -7 10 -15 10 -9 0 -15 10 -16 23 -3 67 -8 90 -20 98
-10 6 -9 12 6 30 l20 22 -23 -12 c-26 -14 -46 -6 -38 16 5 12 0 13 -24 8 -18
-4 -30 -3 -30 3 0 6 8 12 18 14 11 2 13 6 6 10 -6 4 -19 -1 -29 -12z"/>
<path d="M2177 3390 c-56 -43 -87 -97 -87 -151 0 -35 0 -35 52 -8 45 23 124
27 158 9 38 -21 53 -5 46 46 -7 56 -32 101 -60 108 -14 4 -17 8 -9 14 7 4 -5
7 -28 7 -26 0 -50 -8 -72 -25z"/>
<path d="M2325 2965 c-27 -19 -127 -43 -202 -49 -35 -3 -68 -8 -75 -13 -7 -4
-26 -8 -43 -8 -16 -1 -45 -4 -64 -9 -24 -6 -32 -5 -27 3 4 6 2 11 -4 11 -6 0
-13 -7 -17 -16 -5 -13 -7 -13 -14 -2 -6 9 -11 10 -16 2 -5 -6 -17 -10 -28 -8
-11 2 -32 5 -47 6 -15 1 -25 5 -22 9 2 4 -10 7 -27 7 -17 -1 -35 5 -40 13 -6
10 -9 11 -9 1 0 -10 -5 -10 -21 -2 -11 6 -39 10 -62 9 -31 -2 -41 1 -39 11 2
11 0 11 -11 1 -10 -8 -22 -9 -41 -1 -25 9 -26 8 -16 -11 7 -11 9 -27 6 -34 -3
-8 0 -17 5 -21 6 -3 9 -15 6 -25 -3 -10 1 -36 9 -59 12 -34 12 -46 0 -80 -8
-22 -10 -43 -5 -46 15 -9 10 -26 -6 -20 -20 7 -33 -23 -14 -34 7 -5 18 -5 25
1 7 6 20 1 38 -16 15 -14 38 -25 52 -25 13 0 24 -4 24 -9 0 -14 37 -20 49 -8
8 8 23 4 52 -13 34 -18 46 -21 60 -11 25 15 29 14 29 -5 0 -11 6 -13 23 -8 34
12 90 12 115 1 18 -8 25 -8 32 3 7 11 11 11 24 1 12 -10 19 -10 38 3 12 9 39
16 60 16 20 0 40 5 43 10 3 6 17 10 30 10 13 0 26 4 30 10 3 5 13 6 21 3 14
-5 15 3 10 68 -8 86 4 118 26 74 l15 -28 7 27 c3 14 4 37 0 51 -4 16 1 36 15
58 12 19 21 48 21 64 0 19 10 39 30 58 37 35 39 48 5 33 -14 -6 -25 -16 -25
-21 0 -6 -3 -7 -6 -4 -4 4 -1 13 6 22 15 19 2 19 -25 0z"/>
<path d="M2725 2708 c-9 -103 19 -214 67 -265 24 -25 48 -29 80 -12 20 11 20
12 -11 25 -42 17 -67 74 -79 179 -9 79 -3 125 18 125 5 0 10 5 10 10 0 6 -18
10 -39 10 l-39 0 -7 -72z"/>
<path d="M1477 2533 c-11 -11 -7 -37 8 -57 13 -18 29 -23 78 -25 9 -1 17 -8
17 -17 0 -13 7 -15 28 -11 20 4 33 1 44 -13 12 -13 27 -17 53 -15 42 4 50 10
60 43 7 24 -8 29 -35 12 -10 -6 -24 -3 -46 11 -17 10 -39 19 -49 19 -9 0 -28
9 -42 19 -13 11 -31 17 -38 15 -8 -3 -24 1 -37 10 -25 18 -32 19 -41 9z"/>
</g>
</svg>
